<svg xmlns="http://www.w3.org/2000/svg" viewBox="0 0 689.52 507.36"><defs><style>.cls-1{fill:#2b2847;fill-rule:evenodd;}</style></defs><title>folkeklubben-bike-darkblue</title><g id="Layer_2" data-name="Layer 2"><g id="Layer_1-2" data-name="Layer 1"><path class="cls-1" d="M660,269c.08,1.36-.83,1.73-1,2.88-1.15.18-1.07-.86-2.16-.72-.71.33-.42,1.66-.48,2.64-1.87-.91-4.07-4.2-1.92-6.24-1.44-2.83-4.95-4.45-7.68-7-1.52-1.4-2.61-3.36-4.32-4.56-.89-.63-2.24-.8-3.36-1.44s-1.76-1.54-2.64-1.92c-1.4-.6-3.08-.65-4.56-1.44s-2.76-2.31-4.32-2.88-3-.59-4.56-1.2c-2.77-1.1-6.41-2.22-9.6-3.12-1.69-.48-3.82-.31-5.52-.72-2.58-.63-3.79-1.34-7-1.44-4.84-.16-10.23-2.14-15.84-2.4-4.7-.21-8.87,0-13-1-1.75,1.31-4.23,1.86-6,.24a118.7,118.7,0,0,0-17.28,2.64c-5.31,1.38-10.75,2.66-15.36,4.56-3.25,1.34-6.06,3.65-9.6,3.6,3.2-2.68,6.61-3.93,11.52-5.76,2.82-1.05,5.39-1.24,9.12-2.16,4.3-1.07,8.9-2.58,13.92-3.36,3.49-.54,7.13-.41,10.32-.72,8-.77,20.28.57,28.8,1.68,1.75.23,3.72.79,5.52,1.2,5.26,1.19,9.75,2.54,14.4,3.84,6.6,1.85,13.2,3.48,17.76,7.2,4.92.61,7.33,3.71,11.28,5.28,1,6.19,8.81,5.59,10.56,11,1,.33,2.3.42,2.88,1.2"/><path class="cls-1" d="M519.6,252.24c1.95.77,3.83,5.23,5,8.16.73,1.77,1.68,3.76-1.68,3.6-.39-1.12.75-1.37.72-2.4-.08-3.06-4.56-6.2-4.08-9.36"/><path class="cls-1" d="M606.24,286.56c-1.92,3.52-4.45,8.43-7.44,10.56,1.87-4.13,4.09-7.91,7.44-10.56"/><path class="cls-1" d="M582.48,298.8h.72c-1.09,5.8-.76,14.28-1.2,19.92,4.26-4.14,6.56-11.52,11.52-14.16-3.18,4.68-5.94,9.92-9.6,14.88-1.19,1.62-2.72,3.23-3.12,4.8-.77,3,.57,6.81-1,9.84-1.09-1.95-.1-4.68-.24-7-1.71-.62-1.67,2.45-3.6,2.4.31-3.21,2.28-4.76,4.08-6.48,1.38-7.51.72-17.75,2.4-24.24"/><path class="cls-1" d="M516,300.24c.28,0,.43.05.48.24,1.78,1.13,3.16,3.08,4.56,4.8s3.2,3.27,3.36,5.28c-3.64-2.28-4.94-6.91-8.4-9.36v-1"/><path class="cls-1" d="M566.88,302.88c.39-.07.41.23.72.24,0,1.59-.61,3.37-.72,5-.34,5.07,1.38,10.89-.72,15.12a93.41,93.41,0,0,1,.72-20.4"/><path class="cls-1" d="M625.68,309.36c-2.11,5-6.79,7.45-9.36,12-1.81,1.08-2.95,2.81-4.8,3.84.38-2.77,3.27-4,5-6,2.8-3.24,5.49-6.94,8.4-10.08.39-.07.41.23.72.24"/><path class="cls-1" d="M601.92,313c-1.84,3.12-5.27,4.65-7.2,7.68-1.71-1.26,1.4-4.32,3.6-6.24,1-.9,2.48-1.88,3.6-1.44"/><path class="cls-1" d="M658.8,315.84c1.57.2,2.3,1.22,3.6,1.68.18,1-.77.83-.48,1.92.86,2.51,1,5.75,2.4,7.68.63,2.41.21,7.73,2.4,9.36,1.24,4.33.68,8.7,1,13,.18,2.7,1.56,4.7,1.2,7.44-.18,1.39-1,3.91-.24,6.24,1.13-.32-.54-2.6.72-3.12,1.63.42.09,2.64.48,4.08-.43.21-.61.67-1.44.48-1.91,8.25-1.54,18.78-5.76,24.72-1.05.25-.79-.81-1.68-.72-2,1.74-1.06,6.46-2.88,8.4,1.75-.09,1.21-2.47,2.88-2.64-.71,3.13-3.15,4.53-3.36,8.16a103.35,103.35,0,0,1-9.36,11.28c-4.31,4.67-6.89,10.44-12.48,13,1.48-3.64,4.73-5.51,6.48-8.88-.5-2.54-2.86-3.22-4.08-5a10.89,10.89,0,0,1,5,3.84c3.37-2.23,5.44-5.76,8.16-8.64.16-.88-.52-.92-.48-1.68,1.08-.53,2.53-.19,2.4-1.68-.12-1.34-3.87-2-4.56-3.12-.53,0-.1,1-.24,1.44-1.09-.27-1.44-1.28-1.44-2.64a4.08,4.08,0,0,0,1-.72c2.65.74,5.17,3.79,7,.24.24-1-.72-.72-.48-1.68.24-2.13,2.67-2.64,3.6-4.56,1.2-2.47.31-5.83,2.16-8.16,1.34.11,2.22.46,2.88-.48-.08-1.58-.52-3-.48-5s1.64-4.35,1.44-5.76S662.19,372,661,371c1.23-1.15,2.93-.38,4.32,0,1.25-1.33,1.41-5.29.48-6.72-.13-3.41,1.08-6.79.72-10.08-.14-1.25-.93-3-1-4.8-.09-4.83.49-10-2.16-13.68-2.52,2.12-7.74,1.54-11.28,2.64-.7-1.06,1.41-1.06,1.92-1.68-.9-1.76-3,.17-4.56,0,3.57-3.6,9.41.69,13.68-1.68-1.62-6.07-2.76-13.87-4.32-19.2"/><path class="cls-1" d="M665.28,326.88c3.82,3.46,2.89,11.67,5.28,16.56-.83,1.58.45,2.74-.24,4.56-1.17-.86-.31-2-.48-3.12-.35-2.3-2-4.44-1.68-7.44-2.24-2.5-2.29-7-2.88-10.56"/><path class="cls-1" d="M529.68,336.24c-.79,1.06-1.7,1.54-1.44,3.12-1.31.48-2.35-.72-3.84-1-4-.64-9.13-.22-12.48-1.68,1.64-1.93,4.53-.64,7.2-1,4-.48,7.88-2.2,10.56.48"/><path class="cls-1" d="M76.8,351.6h.48C82.1,354.42,86,358.84,91,361.68c3,1.71,6.43,2.79,8.4,5.76C90.7,363.7,83.95,358.05,77,352.56a1.35,1.35,0,0,1-.24-1"/><path class="cls-1" d="M662.88,354.24c-1.39,1.74-3.94,1.17-6.24,1.44-5,.59-10.84,1.5-15.12,1.68,4.88-3.28,14.62-1.7,21.36-3.12"/><path class="cls-1" d="M614.64,361.68c-1.28,1.2-4.87.09-6,1.44,1.83,3.77,8.77,2.43,10.8,6-4.73-.09-8.64-3-13.92-3.36-1.52-1.92-5.83-3-8.64-1.44.32,2.08,3.35,1.46,3.36,3.84-3-.47-4.54-2.5-6-4.56a10.11,10.11,0,0,1,4.32-.48c.84-.82-1.27-1.66-.24-2.64,0-.28.05-.43.24-.48,3.13-.34,4.09,2.78,8.4,2.16,3-.43,6.13-3,7.68-.48"/><path class="cls-1" d="M645.84,370.56c-4-2.07-10.25.09-16.08,0-1.86,0-3.44-.5-5,.48.17-1.26,1.24-1.53,2.16-1.68,3.47-.57,10.67.35,14.88-1,.91-.29,4.13,1.49,4.08,2.16"/><path class="cls-1" d="M470.16,372c-1.82,2.57-7.48,2.16-12,2.64-1.37.15-2.62,1.1-3.6,0-.22-1.53,1.94-1.3,2.88-1,3.27-1.66,9.12-.91,12.72-1.68"/><path class="cls-1" d="M81.12,373.2c-.65,1.88-2.51.43-4.08.24-3.43-.42-7.77,1.09-10.08,0,.45-1.78,2.18-.82,3.84-.72,3.89.24,8.35-2,10.32.48"/><path class="cls-1" d="M92.16,373.68c-.73,1.42-3.5.22-5.52,0-1.52-.17-3,.09-3.84-.72v-.72c2.77-.11,7.15.19,9.36,1.44"/><path class="cls-1" d="M605,372.72c3.75.09,5.3,2.38,8.4,3.12.43,3.41,4.12,3.56,6,5.52.79,0,.92-.68,1.92-.48,3.9,4.74,10.52,6.76,14.4,11.52-9.81-6.59-20.27-12.53-30.24-19-.51.11-.46-.34-.48-.72"/><path class="cls-1" d="M109.44,380.64c.28,0,.43.05.48.24-.95,3-3,5.4-5,7.68-1.22,1.4-2.43,3.32-4.08,3.6,2.29-4.44,5.59-7.85,8.64-11.52"/><path class="cls-1" d="M178.56,384.72c-1.72,1.63-5.47-1-8.16-1.2a16.68,16.68,0,0,0-2.64.24,4.07,4.07,0,0,0-1-.72v-.72c4.13-.36,7.91,1.68,11.76,2.4"/><path class="cls-1" d="M487.92,395c-2.81-1-4.69,2.17-7.44.48a3.57,3.57,0,0,0-4.8-3.12c-.18-.62-.74-1.59-.24-2.16.32.64.45,1.47,1.68,1.2.15-.95-.54-1.06-1.2-1.2a4.25,4.25,0,0,1,1.92-3.12c0-1.74-.88-3.9,0-5,1.91.25,1,2.46,1.2,3.6.42,2.52,2,4.85,2.4,7,4.57-.19,7.59-.45,10.56-2.16,2.19,2.53-3.73,2.27-4.08,4.56"/><path class="cls-1" d="M63.84,384.72c1.1,2.48.3,5.91,1,9.12,0,1.26-1.81.75-1.44,2.4,3.74.66,10.23-2.54,14.88-1-.05,1.36-1.17.24-2.16.48-3,.67-6.15,1.21-9.36,1.68-3.8,1.77.79,6.54-.48,9.12-1.55,0-.84-2.58-2.64-1.68-1.58-2-1-6.17-3.6-7.2.81-.47,1-1.58,1.2-2.64.35-.37,1.23-.21,1.92-.24,0-2.27.22-4.71-1-5.76.73-1.69-1.5-4.61,1.68-4.32"/><path class="cls-1" d="M98.64,395c-.11.69-1,.57-1.2,1.2-.29,1.09.66.94.48,1.92-1.7,3.1-2.95,6.65-6.72,7.68,1.38-3.26,4.37-4.91,5.28-8.64-2.08-1.07-3.44,1.14-5,1.92s-3.71,1-5.52,1.68c-2.16.78-3.85,2.65-6,2.4,2.57-2.94,7.42-3.94,11.52-5.52,2.3-.89,3.85-2.62,7.2-2.64"/><path class="cls-1" d="M125.52,397.68c.39-.07.41.23.72.24a88.86,88.86,0,0,1,2.16,19.2c-1.68-1.2-1.14-3.8-1.44-5.76-.62-4-1.93-8.93-1.44-13.68"/><path class="cls-1" d="M482.88,397.68c.39-.07.41.23.72.24,1.89,4.6,4,8.94,5.76,13.68,2.08-1.07,4.44-.79,6.48-1.44,2.77-.88,4.76-3.68,7.68-3.6-2.89,3.67-8.57,4.55-12.72,7a42.72,42.72,0,0,0,7.68,11c2.28.66,3.7-1.33,5-1.44,0,1.69-2,1.44-2.64,2.88-.7,1.69.23,3.26,1,5-3-3.67-5.17-8.11-8.88-11a8.85,8.85,0,0,0-.48-1.68c-4.93-4-5.82-12.1-9.36-17.52.34-1.4-.89-2.17-.24-3.12"/><path class="cls-1" d="M571.68,398.16c.39-.07.41.23.72.24,3,7,5.56,15.72,7.92,22.56-1.06-.4-1.79-1.89-2.16-2.88-1.24-3.29-1.76-7.35-3.6-10.08-.31-3.78-2.38-7.05-2.88-9.84"/><path class="cls-1" d="M181.2,402c-1.44.73-3.12-.18-4.56-.24-1.1-.06-1.21.87-1.92,1.2-2.74.66-6.34.16-9.6,0-1.33-.07-3.57.62-3.36-1.2,3.47-.29,9,.94,12.72-.24.65-2.7,6-1.1,6.72.48"/><path class="cls-1" d="M601.2,400.56h.48c3.57,3.63,3.28,11.54,7.92,14.64a4.5,4.5,0,0,0,.24,1.92c4.73,5.83,6.57,14.55,11,20.64,3.67-.89,4.45-4.67,8.16-5.52,1-1.11,1.54-2.62,3.36-2.88-1.83,3.07-4,5-7.2,7.44-2,1.53-3.13,3.22-5.76,3.6-1.67.74-3,2.18-4.56,3.12-1.81,1.09-3.75,2.67-6,2.4,1.79-3,6.58-3,7.92-6.48a5.8,5.8,0,0,0,2.4-.72c.1-1.57-1-2-1.68-3.12-2.48-4.24-3.8-9.45-6.48-14.4-1.69-3.12-3.73-5.91-5.52-9.36-1.64-3.14-2.94-8.16-4.32-10.56-.36-.1.1-.31,0-.72"/><path class="cls-1" d="M77.28,403.68c-1.37,1.83-4.82,2.13-6.72,3.6-1.72.86-2.84,4.28-5.28,2.88a9,9,0,0,1,.48-2.64c4.18.11,7.35-4,11.52-3.84"/><path class="cls-1" d="M60,407.52A41.86,41.86,0,0,1,64.56,420c-3.15-2.37-4.52-7.79-4.56-12.48"/><path class="cls-1" d="M530.64,408.72c.41-.09.45.19.48.48-1.73,2.75-3.71,5.63-5.76,8.64-1.16,1.71-1.94,4.24-4.08,5,2.2-5.64,6.46-9.22,9.36-14.16"/><path class="cls-1" d="M66.48,412.32c2.71,1.15,2.67,5.15,3.36,7.68,4.37-.92,6.56-5.27,10.32-6-1.65,3.71-6.19,4.53-8.88,7.2.71,2.73,2.36,4.52,2.88,7.44-2-2.36-3.51-5.13-6-7,1.47-4.43-1.42-5.49-1.68-9.36"/><path class="cls-1" d="M85,414.72c-.81,3.67-2.34,6.62-5.28,8.16,1-3.33,3.21-5.43,4.56-8.4.39-.07.41.23.72.24"/><path class="cls-1" d="M536.4,420.48h.72c-1.94,8.86-5.34,16.26-8.64,23.76-3.26-1.53-.22-5.65,1.2-8.64,1-2.18,1.8-5,2.88-6.72.63-1,1.73-1.57,2.16-2.4,1-2,.86-4.28,1.68-6"/><path class="cls-1" d="M517,422.88c-.25,2.63-3,2.73-4.56,4.08-.27,3.17-3.68,3.2-4.8,5.52,1.08,2,3.79,2.45,6,3.36.48,1.21-.38,1.43-.48,2.64,2.31.73,5,1,5.76,3.36a8.54,8.54,0,0,0-4.56,0,4.89,4.89,0,0,0-1.68-2.64c-1.41-.19-4.28,1.11-4.8-.48.89-.63,3.19.15,4.08-.48-.22-2.1-2.83-1.81-4.32-2.64-.57-1.75-2.37-2.27-3.36-3.6,1.5-1.81-1.35-3.21-1-4.56,1.88.47,1.38,2.56,3.12,2.64,2,.09,2.25-3.94,5.52-3.12,1.7-1.12,1.91-6,5-4.08"/><path class="cls-1" d="M138.72,425.52c.28,0,.43.05.48.24,1.24,5.42,2.73,11.38,2.88,16.56-2.17-4.47-2.8-10.48-3.84-16.08.08-.31.42-.38.48-.72"/><path class="cls-1" d="M79.68,425.76c0,2.42-1.39,3.41-2.4,4.8A2.31,2.31,0,0,0,79,432.48c1.87-1.17,4-2.09,5.52-3.6,1.76.19.78,2.68-.72,2.4-.84,1.64-2.39,2.57-3.12,4.32-3.33.4-3.27-2.58-5.52-2.64.81-3.12,2-5.81,4.56-7.2"/><path class="cls-1" d="M523.92,444c1-.06,1.26-1,2.16-.48.57.47.33,1.75.72,2.4a4.66,4.66,0,0,0,2.88,0c.64.32.32,1.6.72,2.16,1.41.86,4,1,6.24,1.44.87.17,1.89.89,2.64.72,1.74-.39,1.45-2.3,2.64-3.6,1.28-.08,1.92.48,1.92,1.68-.35.85-1.83.57-2.16,1.44.63,2,3.56,2.83,5.76,3.36,2.77.67,6.11.54,8.64,1.44,1.27-.09.56-2.16,2.16-1.92v2.16c1.8.69,3.63-.26,5-.72a3.38,3.38,0,0,0,1,1.44c2.79-.94,6.36.95,8.64-.24.46-.58.07-2,.48-2.64.4.24.26,1,.48,1.44,4.72,2.21,10.45.2,15.36-.72.52-.43,0-2,.48-2.4,1.52-.32,1.24,1.16,2.16,1.44,4.41-2.07,10.08-2.88,13.68-5.76,1,.39,2.08,1.35,1.44,2.64-1,.28-1.18,0-2.16-.24a104.51,104.51,0,0,1-20.4,6.48c-1.28.28-2.38,1-3.6,1.2-2.07.28-5.25-.9-6.72.48-8.15-.43-16.51-.57-23.52-2.64-1,0-1,.91-1.92,1-1.64-.92-4-1.16-5.28-2.4-6-.21-9.62-4.11-15.12-4.08-.92-.52-1.2-1.69-2.64-1.68-.09-.89,1-.63.72-1.68-1.48-1-2.89,0-4.32-1.44-1.06.14-2.11,1.3-3.36.48,1.26-1.9,3.89-3.26,5.28-.72"/><path class="cls-1" d="M91.68,475.68c.4.4.19,1.41.24,2.16,1.49.45,1.17-.91,2.16-1,.63,1,2.3,1.06,3.6,1.44-1.64,2.31-7.17.82-9.84.48.12-2.07,1.52-4,3.84-3.12"/><path class="cls-1" d="M93.36,481.68c-.93,2.51-5.83-.4-6.72,2.16.09,1.19,1.68.88,2.4,1.44-1.63,1.28-4.49-.07-5.28-1.2,1.17-3.22,6-2.52,9.6-2.4"/><path class="cls-1" d="M140.16,482.4c1.12,1.12,3.36,1.12,4.32,2.4a3.89,3.89,0,0,1-1,2.64c-.95.15-.28-1.32-.48-1.92a2,2,0,0,0-3.12-.24c-.9-2.16-4.53-1.39-6.24-2.16,1.6-2.27,4.52.88,6.48-.72"/><path class="cls-1" d="M178.8,9.6c2.76-2.91,7-.81,10.56,0,.58.78.69,2,1.2,2.88a14.36,14.36,0,0,1,5,1.44c-4.44,1.64-8.73-3.33-13-1.92-5.26-2.5-13.41-2.11-18.48-4.8a1.13,1.13,0,0,1-.24-.72c4.31.73,10.6,1.55,14.88,3.12"/><path class="cls-1" d="M146.88,12.24c3.59,1.93,5.51,5.53,7.44,9.12a1.06,1.06,0,0,0-1,.48c.12,1.4,1.81,1.23,2.16,2.4-1.25,1.17-.87,2.7-.24,4.32a3.78,3.78,0,0,1-1.44-3.84c-2.49-3.76-4.7-7.78-7.2-11.52,0-.43.29-.51.24-1"/><path class="cls-1" d="M166.32,31.2c-1.54.6-1.74-2.06-2.88-2.64-.81,1.54,1.46,2.05,1,4.08-1.69-1.11-2.28-3.32-2.88-5.52h1.2a2.36,2.36,0,0,0-1-2.16c-.82-.18-.3,1-1.2.72-.38-.57-1.69-2-.48-2.64-1.88-1.24-3.74-4.78-2.64-7.44h.72c2.61,5.31,5.68,10.16,8.16,15.6"/><path class="cls-1" d="M167.28,18H168c.31,2.25,1.15,4,2.88,4.8-1.12,1.7.4,3.15,1,4.56,3,.22,2.69,3.71,4.56,5,.21.93-.59.85-.72,1.44.92,2,3.17,3.84,3.12,6-1.78-1-1.83-3.77-4.32-4.08-.43-1.49-.86-3-1.92-3.84-1-5.25-4.59-9.16-5.28-13.92"/><path class="cls-1" d="M152.4,27.36c-1.32-.52-1.2,1.13-1.92.48-.29-1.17,1.11-.65.72-1.92-2.2,1.14-3.26-3.31-4.32-5.52,2.23-.7,2.93.76,4.08,2.4s2,2.2,1.44,4.56"/><path class="cls-1" d="M178.56,24.24c.39-.07.41.23.72.24.48,2.32,1.94,4.82,3.12,7.44a29.88,29.88,0,0,0,4.08,6.24c1.37,1.84,2.84,4.64-.48,5.76a7,7,0,0,0-3.12-4.32c.08-.56.38-.9.24-1.68a3.85,3.85,0,0,0-1.2-2.16c.26-4.13-3.3-7.71-3.36-11.52"/><path class="cls-1" d="M151.2,29.28c1.05.47,1.12,1.92,2.16,2.4.46-.1.19-.93,1-.72,1.13,1,1.45,2.87,2.16,4.32.76.33.8.05,1.68,0,.42,1.1,1.42,1.62,1.44,3.12-3.66-.5-4.25-4.07-6-6.48.46,3.61,2.56,7,4.32,10.32s4,6.21,5.28,9.12c-1.77-.14-2.12-2.3-2.88-3.6-3.2-5.52-6.87-12-9.12-18.48"/><path class="cls-1" d="M179,34.08c1,.23,1.35,1,1.92,1.68-1.17,4.79,3.46,5.59,3.6,9.84-2.48-.72-3.08-3.32-3.84-5.76-1-1.36-2.44-3.45-1.68-5.76"/><path class="cls-1" d="M128.88,37.68c1.95,5.09,4.16,9.92,5.76,15.36-3.16-4.36-3.59-11.45-7.44-15.12.31-.33,1-.24,1.68-.24"/><path class="cls-1" d="M153.12,46.56c1.55,2.85,3.28,5.52,3.84,9.36-3.09,1.7-4.95-.59-5.28-3.6,1.41-.58,1.49,1.73,3.36,1.44.39-2.47-2.07-4.17-1.92-7.2"/><path class="cls-1" d="M450,110.64c-.05,1.39-1.25,1.63-2.16,2.16-.19,1.51-.22,2.37-.72,3.12-1.17-.2-.76-.88-.72-1.92-2.27-.37-4.43-.85-5.76-2.16,1.21-1.07,2.61,0,4.08-.24s2.92-1,4.8-1.2c.28,0,.43.05.48.24"/><path class="cls-1" d="M262.8,114.24c.28,2.6-1,3.68-1.44,5.52-.76.12-.94-.34-1.44-.48-1,.79-1.26,2.26-1.68,3.6-4.42.47-2.87,6.13-3.84,9.6-1.51-.36-1.55-2.93-1.44-3.84.39-3.12,3.63-6.23,4.08-9.12,3.48,0,1.48-7.65,5.76-5.28"/><path class="cls-1" d="M491.28,144.48c-.58,2.21-5,2.45-5,.24,0-1.79,3.72-1.8,4.08-3.84,1.23,1-.76,2.87,1,3.6"/><path class="cls-1" d="M96.72,148.56c2.91,3,4.11,7.73,6,11.76.11.75-.65.63-.72,1.2.86,2.35,3.38,4.28,3.6,6.48-3.49-3.55-5.45-8.63-8.88-12.24,1.68-.23,2.19,2.77,3.84,3.36.21-3.9-3.33-7.38-3.84-10.56"/><path class="cls-1" d="M215.52,199.2c-.47,1.63-1.41,3.17-.72,5.28-.83.75-1.55-1.25-2.4-.48,0,2.28-1.4,5.31-4.08,4.8.29-2.3,0-5,1.2-6.72,1-1.49,3.72-1.47,3.6-3.6,1.21-.17,1.65.43,2.4.72"/><path class="cls-1" d="M131.52,199.68c1.25-.13,1.21,1,1.68,1.68,1.1.12,1.36-.42,2.16,0,.09,1.59,1,2.37,1.68,3.36a1.19,1.19,0,0,1,1.92,1c-.91.13-1.38.7-2.16,1-.38-.18-.36-.76-1-.72-.42.51,1.15,2.09.48,2.88-1-.36-1.22-1.49-2.4-1.68.43-3.71-2.06-4.5-2.4-7.44"/><path class="cls-1" d="M404.16,220.32c-2.35-.9-1.71-7.05-.24-8.4,2.86,1.13,3.11,7.07.24,8.4"/><path class="cls-1" d="M135.84,222.24c.19.83-.36.92-.24,1.68,2.4,5.48,6.61,11.27,8.4,17,.77,2.5,4.4,2.85,5.76,5-1.87.57-2.73-2.66-5-1.68-4.76-10.76-10.57-20.47-15.84-30.72,3,1.27,3.13,7.42,7,8.64"/><path class="cls-1" d="M210.48,214.32c-.31,4.09-4.58,4.22-5.52,7.68-.57-3.08,1.86-7.23,5.52-7.68"/><path class="cls-1" d="M389,221.76a21.23,21.23,0,0,1,.48-6.72c4.55.38,2.63,6.15-.48,6.72"/><path class="cls-1" d="M278.64,226.32c-1-3.64.43-6.22.24-9.12,2.89-2.18,3.51,2.46,4.56,4.32-.75,2.34-1.51,5.79-4.8,4.8"/><path class="cls-1" d="M397.68,222.72c-.27,1.88.74,6-.72,7.68-1.21-1.19-.4-4.4-2.64-4.56.43-1.6,2.08-3.15,3.36-3.12"/><path class="cls-1" d="M167,222.72c1.54,2.86,3.89,5.48,3.6,8.88-.1,1.18-1.38,2.18-1.44,3.36-.1,2.22,2.1,3.69,2.16,5.76a18.26,18.26,0,0,1-3.12-6.72c-.69-1.87-5.2-2.95-3.12-5.28,1.37,1,1.66,3.14,3.6,3.6,2.29-2.51-1.38-6.57-1.68-9.6"/><path class="cls-1" d="M154.32,225.84c1.68.4,2.3,1.86,2.64,3.6,2.46,2,3.65,5.32,5.76,7.68,2-.24.83-3.65,1.92-4.8,1.61,1.91-.41,5.41-2.16,6.24-1.72-3.08-4-5.61-5.76-8.64-.76,0-1.45,0-1.68.48-1.6-1-1.35-2.72-.72-4.56"/><path class="cls-1" d="M404.64,226.8c4.1-2.54,3.35,7.37.48,7-2-.28-1.37-5.46-.48-7"/><path class="cls-1" d="M391,228.72c1.23,1.84-.42,4.39-1.92,5-2.57-1.05-1-5.37,1.92-5"/><path class="cls-1" d="M129.36,234.24h.48c2.66,1.82,3.42,5.54,4.8,8.64.54,1.14,1.61,1.75,1.68,3.36-3.12,0-3.05-5.08-5-7v-1.2c-.42-1.5-2.25-1.59-1.92-3.84"/><path class="cls-1" d="M196.08,240.24c.28,0,.43.05.48.24-.63,4-4.15,8.09-4.32,13.2a20.77,20.77,0,0,1,.24,2.64c-.43,2.66-2.81,5-4.32,6.48-1.29,2.23-1.41,5.63-4.08,6.48-.84-2.45,1.88-5,1.68-8.4.63-1.37,1.69-2.31,1.44-4.56,4.89-3.43,5.64-11,8.88-16.08"/><path class="cls-1" d="M67,241.92c1,.33,1,1.69,2.88,1.2-.17,1-1.06,1.18-1.44,1.92a9.54,9.54,0,0,1,2.16,5.28c.41.79,1.87.53,1.68,1.92-.32.08-.38.42-.72.48a8.58,8.58,0,0,1-2.4-4.56c-.7-2.71-3-3.75-2.16-6.24"/><path class="cls-1" d="M244.08,290.16h.48c2.49,1.59,5.71,2.45,7.44,4.8,2.19,1.25,4.94,2.35,7.44,3.6s5.45,2.08,6.48,4.08c-2.33-.41-4.22-2.49-6.72-3.12-1.76-.44-3.61-.25-4.32-1.92-3.74-2.05-8.73-4.56-10.8-7.44"/><path class="cls-1" d="M269.52,304.08H270c5.86,4.22,13.31,6.85,19.68,10.56-4,.06-7.22-3.32-10.8-4.8s-7.23-2.78-9.36-5.76"/><path class="cls-1" d="M517,321.6c-6.08-3.92-9.84-10.16-15.6-14.4a1.13,1.13,0,0,1-.24-.72c2-1.11,3.47,2,5,3.6,3.68,3.68,9.21,7.27,10.8,11.52"/><path class="cls-1" d="M485.76,312.72c1.11-.15.86,1.06,1.44,1.44,1.76,0,4,.76,3.6,2.16a6.32,6.32,0,0,0-7,1c-.34-2.5,1.7-2.62,1.92-4.56"/><path class="cls-1" d="M205,321.84c.9,4.06,3.24,6.68,4.08,10.8-2.55-1.61-2.5-5.82-4.8-7.68.77-1-.21-2.25.72-3.12"/><path class="cls-1" d="M467.52,192.72c1.22.3,1.87-.83,2.64-.24-.88,2.24-3.62,2.62-5.28,4.08a160.3,160.3,0,0,0-21.6-1.68c-.31,3.94.93,8.33,1.44,12.24,4.27,1.41,11.42-.06,14.64,2.4,3.26-3.46,3-10.41,7.44-12.72.13,2.07,2.6,1.54,4.8,2.4,1.42.55,1.73,1.3,2.64,1.2,2.56-.27,2.77-3.62,3.36-6.48a3.61,3.61,0,0,0,5.28-3.84c3.26,1.3,3.59,5.54,6,7.68-.05.77.43,1,.24,1.92,1.22,1,1.67,2.81,2.64,4.08.1,1.06-1.09.83-1.68,1.2a3.79,3.79,0,0,0,3.36,2.4c.17.73-.41.71-.24,1.44a9.63,9.63,0,0,1,3.12,2.64c1.16,3.78,2.14,7.33,4.56,10.08.93,1.06,2.54,1.49,3.36,2.64,2.17,3,3.05,6.81,6,9.36h2.16c4.45,3.07,6.86,8.18,8.88,13.68-1.93-1.46-2.59-4.19-3.84-6.24s-2.86-4.36-5.28-5.28c.29,2.35,1.91,4.56,3.12,7,1.13,2.24,3,4.36,3.12,6.72-1.35-.25-1.41-1.94-1.92-2.88-1.5-2.76-3.53-5.92-5.28-8.88a3.69,3.69,0,0,1-2.4-.24c-5.48-8.36-10.51-17.07-15.36-25.92-1.43-2.61-3.64-4.83-5-7.44.2-1.72-.71-2.33-1.2-3.36-.23-1,1.34-.1,1.2-1a14.35,14.35,0,0,0-2.4-3.6c-.61,1.31-3,.81-3.12,2.64-1-.79-2.76-2.28-4.08-.72a64.27,64.27,0,0,0,9.6,11.28c0,.64-.09,1.37.24,1.68,4.32,7.85,10.54,13.78,13,23.52.36,1.08,1.37,1.51,1.68,2.64.17.73-.24.87-.24,1.44,3.27,6.72,6.93,13.07,10.08,19.92a9,9,0,0,0,1.68.48c.29,2,.75,3.73,2.16,4.56.73-.44-.28-1.14,0-1.92,1.66.82,2.19,2.78,4.56,2.88.75,1.89.86,4.42,2.4,5.52,2.61-.59,4.95-1.46,6-3.6-.31-1.69-1.09-2.91-1.44-4.56,8-5,19.26-8.53,30.24-11,2.95-.68,5.8-.4,8.88-.72,1.51-.16,2.85-.94,4.32-1.2a64.74,64.74,0,0,1,16.08-.24c8.16.7,16.51,1.38,23.76,3.6,4.51,2.93,9.37,5.51,16.8,5.52,1,.32.68,1.49,1.92,1.92,1.62.56,4.57-.83,5,1.2-.22,1.38-2.33.87-3.36,1.44-1.08,0-.4-1.84-1.68-1.68-1.71,1.91,1.7,2.53,2.64,3.36.87-.17,1.24-.84,2.16-1,2.06.34,2.9,1.9,4.08,3.12a45.9,45.9,0,0,1,9.36,7,5,5,0,0,1,4.08.72,4.48,4.48,0,0,1-.24,1.92c1,2.32,4,2.77,5.52,4.56.52.6.73,1.54,1.2,2.16,4.25,5.66,10.69,9.37,14.64,15.36a5.94,5.94,0,0,1,2.4,1.68c.14.86-.28,1.16-.48,1.68a31.51,31.51,0,0,1,4.8,6.72c.37,5.87,2.93,9.55,5,13.68a3.35,3.35,0,0,0,.72,3.36c1.2-.79.78-2.71.72-4.08-.17-4.29-.75-8.88-3.12-11a52,52,0,0,0-3.12-9.6c-1,.07-.42,1.66-1.44,1.68-.95-1.2-1.89-2-1.92-3.12s1.26-2.11,1.2-3.36c-.12-2.47-3.54-5.73-5-7.44-2.39-2.72-3.83-6.93-6.72-9.6a16.43,16.43,0,0,1-2.4-2.64c-1.61-2.09-4.11-2.68-3.6-5.76,1.23-.73,1.52,1.29,1.92,2.16.78,1.06,1.89,1.79,2.4,3.12a10.46,10.46,0,0,1,3.6,2.4,8.93,8.93,0,0,0,.48,1.68c3.82,4.59,6.91,9.89,10.8,14.4,1.73,4.67,4.35,8.45,6.48,12.72.06.86-.72.88-.72,1.68a24.83,24.83,0,0,1,3.12,13c-.23,5.31,1.19,10.65,0,15.6-.4.4-1.41.19-2.16.24-.93-.75-.95-2.41-1.44-3.6-1.24-.3-1.72,2.08-3.84,1.68-1.1-.92.3-2.85-.72-3.84a7.08,7.08,0,0,0-.48,4.56c.25,1.09,1.41,1.88,1.68,2.64,1.27,3.57.13,9.35.24,13.44.15,5.56-.9,12-1.68,18-1,7.73-3.25,15-3.84,21.36-4.08,2.72-3.09,10.51-7,13.44-.28,1.21.53,2.18,0,2.88-.51.11-.46-.34-.48-.72-1,.15-1.17,1.23-1.68,1.92-.38.94,1,.08,1,.72-.12,1.88-1.41,2.59-1.92,4.08-.85.42-.59-.16-1.44-.24a9.4,9.4,0,0,0-.72,2.4c-4.72,7.6-9,15.69-16.08,20.88-1.54,4.06-6.65,4.55-8.4,8.4-3.88,1.21-5.82,5-9.12,7-.56.33-1.38.33-1.92.72-1,.74-1.41,2.08-2.4,2.88a39.72,39.72,0,0,1-4.8,2.64c-3.66,2.06-7.43,3.56-10.8,6-3.41-.9-5.56,2.22-8.64,1.68-.24.88-.84,1.4-1,2.4,1.33.73,4.07-1.47,4.08,1.2-2.11,0-6,.19-8.16,0-.2-1,.65-.95,1-1.44-.78-.65-1.95-.35-2.88,0-.86.77,1,1,.24,1.68-1.83-.5-2.38.32-3.36,1.2-1.51-1-2.77.77-4.32,1-1,.13-2.05-.4-3.12-.48-8.87-.62-20.14,1-29,0-1.25-.14-2.3-1.31-3.6-.48-.43,0,.38,1.13-.24,1.44h-1.92c-.57-.31-.69-1.08-1-1.68-5,1.28-11.41,0-17.52,1.2-3.54-1.83-10,.74-12.24-2.4-2.31,0-5.49.5-7.2-.72,1.32-1.74,4.74.53,6.48-.72,6.2,1.14,14.39,2,21.36,1.2-1-.89-2.59-1.08-4.32-1.2-3.33-2.05-7.24-1.88-10.56-3.36-1.12-.5-2.31-1.2-3.84-1.92-4.36-2-8-4.9-12-7.44-1.6-1-3.59-1.5-5-2.88-.58-.55-.91-1.38-1.44-1.92-3.31-3.35-7.43-4.91-10.56-7.68-.57-.5-.85-1.4-1.44-1.92-1.12-1-2.56-1.36-3.6-2.4-1.92-1.92-3.28-4.65-5.28-6.72-.78-.81-1.91-1.3-2.64-2.16-3.78-4.46-6-10.12-10.08-14.4A48.69,48.69,0,0,0,462.48,401c-5.26.9-11,1.34-15.36,3.12-1,.28-.93-.51-1.68-.48-1.25.11-1.54,1.18-2.64,1.44a29.15,29.15,0,0,0-5.28-.24c-1.41.17-2.35,1.16-3.6,1.44-.72.16-1.48-.19-2.16,0-.89.24-1.55,1-2.4,1.2-2.42.48-4.94,0-7.2.48-1.86.41-4,1-6.48,1.68-3.64-1-8.51.25-11.28,1.68-1-.09-1.18-1.06-2.16-1.2a3.26,3.26,0,0,1-5.52.48c-1.31-.19-.27,2-1.2,2.16-1.43.23-.93-1.47-2.16-1.44-1.67,1.54-4.26,1.91-5.28-.48-.74.06-.93.67-1.44,1-4.75-2.45-10.58-3.82-15.12-6.48-.76-1.08-1.41-2.26-3.12-2.4-.25-3.91-4.18-4.14-4.8-7.68-.6-.6-1.8-.6-2.4-1.2,1.46-3.42-2.56-4.11-1.92-8.16-1.51-.39-1,1.26-2.16,1.2-1.72-1.32-3.29-2.79-5-4.08.14-2.14-1-3-1.92-4.08.71-3.11-.72-6.41-4.56-5,0,3.34,4.45,6.66,4.32,10.08-.07,1.89-1.44,3-2.88,3.84-1.89,1.12-1.36,3.15-4.08,2.88-2-.2-2.84-2.47-3.84-4.08-1.39-2.24-5.4-5.87-6-8.4a6,6,0,0,0,.24-2.4c-.55-.72-1.6-1-2.4-1.44-2.15-4.57-5.3-8.14-7.92-12.24a2,2,0,0,1,2.16-1.92c.77,1.15.91,2.93,2.4,3.36,1.55-.53,2.33-1.83,4.32-1.92,1-2.62.73-6.88-3.12-4.08-.57,1.07.33,2.13-.48,2.88a2,2,0,0,1-2.16-.24c0-3.07,2.8-5.44,4.8-5.28,1,.08,3,2.22,3.84,3.12,2.55,2.82,5.19,7.92,7.2,9.84a13.83,13.83,0,0,1,7,2.64c1,.12.38-1.38,1.2-1.44,1.67,1.07,3.7.4,6,.72.67.09,1.26.72,2.16,1,1.68.44,3.92.1,5.28.48,2,.55,4.51,2.94,5.52-.48-4.58-.6-9.74-3-14.16-2.16-2.85-.61-2.83-5.07-1.2-7-.29-.91-1.69-.71-2.88-.72-3.69-2.68-8-3.21-12-5.52s-7.18-5.86-12-6.72c-1.52-.27-3.59-3-5-4.08-4.67-3.47-11.16-4.58-15.84-8.16h-1.92a27.81,27.81,0,0,0-9.12-4.32c-3.12-3-7.29-4.43-11-6.48s-6.71-5.45-11-6.48c-4.18-3.25-10.07-4.81-14.16-8.16a8.42,8.42,0,0,0-2.4-.24c-12-8-26.07-13.93-39.6-20.4-.64-.62.46-.34.48-1-3.06-2.46-8.17-2.87-10.8-5.76a5.34,5.34,0,0,1-3.36-.24c-2.31,2.52-1.67,5.68,1.68,6.48a3.33,3.33,0,0,0,1.44,2.88c-.89,3.19-3,5.2-3.6,8.64-1.08-.13-1.86-1.7-2.88-.48a15.14,15.14,0,0,0,5.76,6.24,139.74,139.74,0,0,1,13.2,24.24c2.21,5.28,4.62,11.77,5.52,17,1.19,7,1.39,15.29,3.6,21.36.24.72-.53.43-1,.48a104,104,0,0,1-2.16,23.76c-.2,1,.47,1.13.48,1.92-2.1,2.54-2.55,6.73-3.84,10.08-.07.86.95.65,1,1.44-.67,3.81-1.95,7-4.56,8.88-.54,2.42-1,4.9-2.16,6.72.08.56.38.9.24,1.68a7.82,7.82,0,0,1-3.12,3.12c-3.67-1.76-10.39,1.27-12.72-2.16-1.17.49.18,1.43.24,2.16a35.87,35.87,0,0,1-4.08,4.32c.76,3.24-2.17,2.79-2.16,5.28a5.15,5.15,0,0,1-2.16.24c-.86.9-1.05,2.47-1.2,4.08-3,2.66-4.67,6.69-8.16,8.88H180c0,5.12-5.17,6.71-7.92,9.84-1,.28-.93-.51-1.68-.48s-.65,1.43-1,2.16a69.5,69.5,0,0,1-7.2,4.56c-2.21,1.37-4.91,3.58-7.44,4.08-.6.12-1.36-.18-1.92,0-.86.28-1.3,1.07-2.16,1.44-1.51.64-3.22.39-4.8,1-2.86,1.46-8.72,3.88-12.48,4.32-1.58.19-3.21-.3-4.8,0-1,.2-2,1.06-3.12,1.2-5.35.71-10.55-1.07-15.84-2.16-2-.41-4.17-.17-6.24-.48-5.72-.84-10.15-5-14.4-5.52-.54.25-.09,1.51-.24,2.16-1.09,2.07-3.51,3.42-4.56,5.52-.29.57-.15,1.36-.48,1.92-1.31,2.26-3.95,4.14-5.76,6.48-.91,1.17-1.77,2.39-2.64,3.6-2.67,3.68-5.09,7.6-8.64,10.56-.54.52.2.82,0,1.68-2.91,2.45-6.85,3.87-11.28,4.8a6.25,6.25,0,0,0-3.84-1.44c-1.15-1.74.74-2.86,1.2-4.08,1.26-3.38,3.64-5.91,5.52-9.12,2.79-4.76,5.62-9.65,8.16-14.64,2.75-5.4,4.78-11.17,8.64-15.84-.67-1.55-2.08-1.85-3.84-1.2-.15-.89-.57-1.51-.72-2.4-4.89-4.15-9.49-8.59-11.52-15.6-1-.2-.12,1.48-.72,1.68A18.08,18.08,0,0,1,55,438.48c-2.25-1.67-3.13-4.71-4.56-7.2.36-3.13-1.12-4.41-2.16-7.2s-.77-5.11-2.64-6.72c-.17-.89.41-1,.24-1.92-1.07-2.27-2.84-4-3.12-6.48-.05-.48.33-.94.24-1.44-.17-.94-1-2.2-1-3.36s1.29-2.37,1.2-3.6c-.08-1-1.19-1.46-1.44-2.4a12.11,12.11,0,0,1,0-4.32c.32-1.63,1.87-4-.48-5.52.7-2.11,2.26-2.89,1.92-5.28-.22-1.57-1.72-2.82-1.68-4.32.33-1.79,1.57-1.38,1.68-2.88.13-1.78-2-3.17-1.68-4.56s2-1.7,3.6-2.4A29,29,0,0,0,43,365.52c-.57-3.64,1.57-4.87,3.84-6.24.24-1.51-1.22-1.33-1.2-2.64.23-1.93,2.36-2,3.12-3.36.08-1.2-1.06-1.18-1.2-2.16A4,4,0,0,1,49,347c1.22-.51,2.51.47,3.12-.72-.65-1.51-1.61-2.71-1.68-4.8.54-2.17,4.5-.94,4.32-3.84.16-.87-1.14-.3-1.2-1,.41-1.59.9-3.1,2.16-3.84,1.43-.15,1.73.83,3.12.72.55.07.27-.69.72-.72a26.71,26.71,0,0,1-1.68-5c1.52-1.12,3.88-1.4,4.56-3.36-1.26-2.49.45-4.58,3.12-4.56a6.65,6.65,0,0,0,2.64-5c2.92-2,5.1-4.82,7.44-7.44,1.26-.14.46,1.78,1.68,1.68,1.26-1.14.63-4.17,2.16-5,.69,0,1.57.13,1.92-.24,2.19-2,4-4.32,6.72-5.76-3.23-8.61-7.34-16.34-10.32-25.2.67.13,1.25.35,1.92.48.48.46.12,1.13,0,1.68,1.67,1.27,3.35.78,4.32,1.92,0,1.42-1.49-.22-1.2,1.44-.13,1.17,1.65.43,1.92,1.2.15,2.33,1.82,3.15,2.88,4.56.6,2.71,1,5.23,2.4,7,.79,1,2.54,1.24,2.4,2.88-1.46.52-1.81-2-3.84-1.68-1.29,1.94.88,4.12,1.44,5.76,1.52.2,1.59-1.65,3.12-.72.81,1.85-1.22,2.51-1.92,3.6a2.62,2.62,0,0,0,1,1.68c1-.09.93-1.31,1.68-1.68.75-.11.63.64,1.2.72.27,1.79-1.68,1.35-1.92,2.64,1.09,3.39,3,6,4.8,8.64.53-.76-.78-2.8-.24-3.6,1.6.56.84,3.48,1.92,4.56-2,1.78.05,5.61,1.92,6.48,1,.24.72-.72,1.68-.48,2.08,1.53,2.91,5.55,3.6,7.68-.85.73-1.11-.66-2.16-.48,1.31,2.13,1.65,5.24,3.12,7.2a9,9,0,0,0,2.64.48c.48,1.92,3.48,1.32,3.12,4.08-1.85,0-1.9-1.78-2.64-2.88-.6.13-.85.59-1.2,1,.91,3,2.81,5,6.48,5.28,1.82,2.74,3.81,5.31,6.72,7,1.55-.19,2.63.1,3.12,1,2.73-1.26,6.9-.43,10.08-1.2,1-.85,1.29-3.36,3.12-2.64.65.77-.18,1.59,0,2.64,2.73-.15,3.5-2.26,6.48-2.16a2.12,2.12,0,0,0,.48-1.92A26.31,26.31,0,0,0,155,336h1.44c5.85-6.87,7.72-17.72,13-25.2.81-4.26,3.87-7.52,5.28-11.52.4-1.15.49-2.1,1-3.12A118.19,118.19,0,0,0,181.44,281c.43,0,.51-.29,1-.24a4.45,4.45,0,0,1,2.4-3.6c2.36-4,3.51-9.29,6-13.2.47-5.21,4.13-7.23,4.56-12.48,3.16-4.27,3.82-9.9,7-14.4.49-.71,1.27-1,1.68-1.68.71-1.25.71-2.76,1.2-4.08.9-2.39,1.95-5.13,3.12-7.68,1.65-3.59,2.74-7.07,5-9.6.62-5.08,3.42-9.55,5.28-14.16.58-1.43.58-2.72,1.2-3.84.89-1.6,1.61-2,2.4-4.32.4-1.18,1.44-2.39,1.68-3.36,1-4.22.08-8.86-.24-13.44s.72-9.32,1-14.4c.34-7.29-.06-15.83.72-22.56,1.05-9.14-.43-19.71,0-29.28.36-7.91.93-16.72.24-24.48-2-.12-1.17,2.51-2.4,3.12-.63,4.74-1.8,9.42-2.64,14.16-1.19,6.73-2.43,12.62-3.12,19.92-.35,3.69-2.47,7.2-2.64,10.56a49.52,49.52,0,0,1-1.68,10.56c-.56,2-1.68,3.85-1.92,6-.41,3.67-.05,7.3-1.68,10.56.74,1.84.05,2.86,0,5-3,3.09-2.92,8.74-3.84,14.4-1,6.41-3.1,14.93-2.64,21.84.1.54,1.18.1,1.68.24.34.62.33,1.59.72,2.16.76,0,1.45,0,1.68-.48.18,1.72-2.36,3.47-1.44,6a6.11,6.11,0,0,1-2.88,3.6c-2.62,8.26-7.17,17-10.32,25.2-.94,2.44-3.93,4.19-3.12,8.4a9.32,9.32,0,0,0-2.16,6c-2.57,2.07-3.78,5.49-5,8.88.06.74.67.93,1,1.44-.39,1.55-1.87,3.4-.72,5a13.91,13.91,0,0,1-1.68.72c-3.72,10.69-8.9,19.9-13.44,29.76v1.92c-3.53,5.8-5.64,12.5-9.12,19.92-1.24,2.64-3.15,5.19-4.56,7.92s-2.75,6.61-4.32,8.16c-.77.77-1.94,1-2.64,1.68-2.43,2.31-4,5.89-9.84,5-.9-.13-1.58-.81-2.64-1-.29-2.13,1.44-2.24,2.4-3.12-1-2-4.28.31-6.24-1-.65,1.1,1,2.91,0,4.32-4.32-3.07.36-9.19,1.2-13-.2-1-1.27-1.13-2.16-1.44-1.62-1.9-2.93-4.11-5-5.52-1.84-4.24-4.23-7.93-6.24-12a6.53,6.53,0,0,0,1-2.64c-1.31-.6-2.94.36-3.6,1.2.13,7.26,2.88,17.14,3.36,24.72.1,1.61-.17,3.11.72,4.08,1.1,1.2,3.91.33,3.6,2.64-2.07.67-3.2-1.57-5-1.92-3.27-4.41-7.88-7.48-8.64-14.4,3.13,2.79,3.67,8.17,7.44,10.32.39-7.46-2.67-16-3.12-24.72a15.25,15.25,0,0,0-7.92,3.36c-.2,1.85,1.53,2.88.72,4.56-2.14-.49-1.71-2.06-2.16-3.36a85.6,85.6,0,0,0-6-13.44c-.74-1.31-2-2.66-2.4-3.84s-.2-2.5-.72-3.6c-2.64-5.58-6.59-12.13-9.84-18.48-1.26-2.46-2.28-5-3.36-7.68-1.62-4-3.92-7.4-5-12-.35-.77-1.17-1.06-1.92-1.44-1.49-4.27-3.37-8.14-3.6-13.68a10,10,0,0,0-6-.72c-.71-.65-.36-2.36-1.2-2.88-1.71-.66-2.82.48-4.08,1-1.38-1.88-5-1.83-8.4-2.64-3.76-.89-10.6-4.42-10.56.72a20.87,20.87,0,0,1,6,2.16c1.4-.76,3-1.27,4.08-2.4,1.05.8.65,2.41.24,3.6,5.35-2.23,8,1.89,11.52,3.6.53.56,0,1.36-.24,1.92,3.5,3.06,4,9.1,7.2,12.48,1.15.11.53-1.55,1.68-1.44,2.11,1.51.64,5,2.16,6.24-1.27,3.17.74,6,1.44,8.64-2.12-.92-1.9-4.18-2.64-6.48-4.3-4.83-6.47-11.77-9.84-17.52-2.11-.69-4.29-.22-6.24-.72-.7-.18-1-.73-1.68-1a24.12,24.12,0,0,0-6.72-.72c-1.69,0-3.65.63-5.28.24-3.36-.81-5.81-5.89-7.68-8.88a19.11,19.11,0,0,0-7.2-7.2c-.41-3-2.35-4.53-4.32-6a55.34,55.34,0,0,0-8.4-8.88c-1.37-1.07-3.21-1.43-4.56-2.4-.74-.53-1.11-1.53-1.92-1.92s-1.89-.13-2.64-.48c-3.06-1.43-3-5.42-6.24-7,.57-1.77,1.7-2.9.72-5-.06-1.1.87-1.21,1.2-1.92.12-.76-.43-.85-.24-1.68A68.79,68.79,0,0,0,4.08,181c.27-1.72.66-4.1,2.16-4.32,0,1.74-1.17,2.35-1,4.32,1.2.18,2.2-1.64,1.68-3.36,1.22-1.61,2.75-4,1.68-6.48.85-2,1.28-4.48,3.12-5.52-.36-3.56,2.41-6.2,2.88-9.6a20.54,20.54,0,0,1,1-4.56c2-6,2.61-14.73,5.76-18.48.17-.89-.41-1-.24-1.92,1.13-3.67,3-6.56,4.08-10.32,3.76-10,8.44-22,10.32-33.84.53-.53,1,.24,1.92,0a5.31,5.31,0,0,1,2.64-4.32c1.44.64,3.47.69,3.12,3.12-.47.74-1.48-.54-1.92.24.44,1.08,2.08,1,3.12,1.44.75-.05.41-1.2.48-1.92.57-.31,1.66-.1,2.16-.48,5.76-5.84,12.5-10.7,18.72-16.08,0-.68.44-1,.48-1.68,2.3-1.44,3.7-3.76,5.76-5.52,2.86-2.45,6.42-4.36,9.12-7,2.06-2,2.75-4.63,5-6.48,5.1-4.13,10-10.23,15.36-14.4,1.65-1.28,3.22-2.27,4.8-3.6s2.9-2.61,4.56-3.84c3.47-5.65,8.83-9.41,13-14.4,1.13-4.39,2.34-8.7,5-11.52,1.93.56,4.11-.48,5.28,1,.9,0,.56-1.2,1.2-1.44a20.47,20.47,0,0,1,7.2,1.68c0,.62-.89.39-1.2.72.18.62.77.83,1.68.72.74-.21.49-1.42,1.44-1.44,1.35-.07,1.62.94,2.64,1.2,1.8.2,4.23-.23,4.8,1.2-1.29.72-2.4-.57-4.08-.24.34,2.46,4.5,1.09,5.28,3.12-1.09.77-2.64-.88-3.84,0,.9,2.48,3.15,4.45,6.48,3.12,1,.41,1,1.69,1.68,2.4,1.23.26.22-1.7,1.44-1.44.35.53.16,1.6.72,1.92,1.55-2.45,5.06-.1,6.48-2.4,1.39,2,4.56,2.17,7,3.12.93.13.56-1,1.2-1.2,2.07,1.53,5.65,1.54,7.92,2.88,1.91-1.48,2.36.85,4.08-.48,1,.93,3.15,2.12,4.56,1.2.6,1.17,2.4,1.12,3.6,1.68.75-.31-.6-1.35.48-1.44,2,.13.58,1.91.72,2.88-8.45-.72-16.3-5.36-24.72-3.12-1-1.29-2.63-2-4.08-2.88-.72.66.32,1.59,0,2.64-1.73-.35-1.6-2.57-2.64-3.6-.79.1-1.55.21-1.68,1-.13,1,.81,1,1.44,1.2,1.31,3.09,2.88,5.92,3.6,9.6-2.26-.63-2.55-5.28-4.56-7a4.49,4.49,0,0,1-.24-1.92c-1.56-.85-2.61.26-2.64,1.68-1.07.11,0-1.87-.72-2.16-1.11-1.05-3.17-1.15-3.84-2.64-1.29.53-1.26,1.54-2.88.72-.59.15,0,1.12.24,1.2-1.66-.74-2.82-4.06-6-4.08a3.26,3.26,0,0,1-3.12.48c-.27,1.9,1.6,2,.72,3.84.7,2.54,4.75,2.88,4.32,5.76-.76-1.46-4-1.85-3.84.72-.72-.32-1.92-.17-2.64-.48-1.07-1.25-1.19-3.45-2.88-4.08-.32,2.2,2.15,3.59,2.4,6,.17,1.62-.22,3.37,1.2,4.56-.52.84-2.39.33-2.64,1.44-.16,1.6.86,2,1,3.36.14.94-1,.61-1.2,1.2,1.42,4.34,2.92,8.6,6.24,11,1.19.31-.23-2,1-1.68,1.31,1.39-1,2.61,0,4.56-4.05-3.23-6.11-8.45-8.88-13-.17-.89.41-1,.24-1.92-.79-2.73-4.11-4.38-2.64-7.92-1.12-1.19-1.31-3.33-2.88-4.08-1.11.9.5,2.73,1,3.6-.09,6.77,3.54,11.79,4.56,18.24.77.91,2.52.84,2.16,2.88-5.75-.49-3.47-7.68-7-10.56-.12-1.08.85-1.07,1-1.92-.43-1.41-1.65-2-2.4-3.12,0-1.17-.05-2.29.48-2.88-1.31-2.31.33-5.84-1.92-7a4.91,4.91,0,0,0,1,6.48c.18.82-.88.4-1,1,.09,1.27.85,1.87,1.2,2.88.07.95-1,.73-1,1.68,2.23,7.06,5.78,12.78,7.92,19.92-1.43-.21-1.06-1.53-1.44-2.4-2.59-5.87-5.46-12.19-8.4-17.76-.36.88-1.4.11-1.92-.24-1.81,2.09.53,5.56-1.68,7.2-.18.9.92.52,1,1.2,2,7.28,5.38,13.18,7.2,20.64-2.57-3.9-4.16-8.8-6-13.44a20.64,20.64,0,0,0,2.88,11.28c-2.09,3.86,1.74,8.36,2.88,12-.22.9-.89,1.35-1,2.4-1.23-.61-.81-1.7-.24-2.64a71.35,71.35,0,0,1-5.28-17.76A6.39,6.39,0,0,0,125.76,48c.53-.66.46-1.22.24-2.16-1.48.68-2,2.3-3.36,3.12.46,2.74,2.38,5.29,2.4,7.68-1.49-2.79-4.09-6.5-2.64-10.08.59-.59,1,.18,1.92,0,.48-.47.15-1.37,0-1.92.9-.26.68.6,1.44.48a6.52,6.52,0,0,0-1.2-4.56,7.74,7.74,0,0,1-2.88-1c-1.05,1.14.08,2.52,0,3.84-.07,1.17-.9,2.15-1.2,3.36-.51,2.09-.39,4.69-1,7.2-.33,1.46-1.1,2.84-1.44,4.32-.89,4-1.32,8.16-2.4,11.52-.21.66-.84,1.07-1,1.68a71.85,71.85,0,0,1-2.64,8.88c.32,1.49,2.22,2,1.2,4.08-.73.17-.87-.24-1.44-.24a21.14,21.14,0,0,0-2.64,8.64c-1.8,1.1-2.82,4.09-1.68,6.72a7.82,7.82,0,0,0-3.6,5c-.53,3.11.45,6.8-1.92,8.88,1,2.43-.77,4.79-1.44,7,1.61,1.77.14,4.34,2.16,6-.79,0-1.06-1.07-1.68-.48-1.41,2.15-1,6.7-2.64,7.92.26-3.24,2.27-7.09,1.44-9.84-2.13,4.51-2.89,10.39-3.84,16.08a10.45,10.45,0,0,0,2.64,2.16c.81-1-.65-1.73-.24-3.12,1.61-.26,1,1.41,1.2,2.16.58,1.86,1.64,4.06,1.92,6-.68-.2-1.48-.28-2.16-.48-.12-1.32.78-1.62.72-2.88-.6-.76-1.18-.3-1.92,0-.64-1.2-1.75-1.93-2.4-3.12-1.49,1.31-1.56,4-2.4,6-.08,1.36,1.94,1.64,1.44,2.64-.76.12-.85-.43-1.68-.24-.35,2.62-1.69,5.85.24,7.44-.58.1-.52-.44-1.2-.24-1.12,1.84-1,5-2.64,6.24.41,3.79-.09,7.63,1.68,11.52-.11,1.17-1.7.86-2.4,1.44-.74,4.54-3.06,7.5-3.36,12.48.26.56,1-1.17,1.68-.24,0,2-.77,3.93-.24,5.52.45,1.37,2.68,1.44,2.16,3.12A13,13,0,0,1,85,193.2a1.17,1.17,0,0,0-.48,1.2c-.22.94,1.27.17,1.44.72-.63,1.77-.44,4.36-2.16,5,1.75,3.18-.81,5.73-1,8.64-1.69-.87-1-4.12-2.16-5.52-.1-1.06,1.29-.63,1.44-1.44a2.45,2.45,0,0,0-1-2.16c-2,.91-4.1,5.62-.72,6.48-1.25,1.52-3.28,3.37-2.16,6.48.89.25.47-.81,1-1,1.17.11.64,1.92,1.92,1.92.08,1-1.11.65-1.2,1.44a14.26,14.26,0,0,0,1.92,5.28c-.26,1.18-1.17,1.71-1.2,3.12-1.16-2-1.52-4.72-3.12-6.24.08-1.18.91-2.14.24-3.36-3.81,2.57.55,6.91.72,9.36s-1.1,6.58,1.68,8.4c.76-.44-.47-2.87,1-2.64-.23,2.71,1.26,3.7,1,6.48,1,1.26,3.52,3.17,5.52,1.92.83,2.93,6.35,1.17,7.68,3.6,2.14-1.48,3.88,1.26,5.76,2.16.34-2.85-3.54-5.56-4.32-8.88,2.47,2,3.57,5.39,5.76,7.68,2.7-.51,4.82.48,7.92.24.86.65,1.54,1.51,2.4,2.16,5.79.38,11.84,1.76,16.56,2.4-1.93-4.64-5.64-9.56-8.16-14.4,2,1.07,2.95,3.72,4.32,6,1.85,3.08,4,5.74,5.76,9.12,2.52.68,5.16-.09,6.72,1.68,5.71-.94,11,2.79,16.08,1.68a41.89,41.89,0,0,0,9.84,2.88c.25-2.09-1.6-2.08-2.64-2.88-.89-4.71-4.67-6.53-5.76-11,4.13,4.83,6.61,11.31,11.76,15.12,1.38-.67,2.63,0,4.08-.48-2.36-5.16-5.51-9.53-7.68-14.88,3.31,4.37,5.26,10.1,9.6,13.44,1.67-.2,3-2.82,4.56-1,1.82-3.5-1.17-6.49-.72-10.8,1.79,1.49,1,5.56,2.4,7.44,2.85.8,2.55-2.38,3.12-4.32s2-4.46.48-6.72c-.1-1.22,1-1.22,1.44-1.92-.31-3.23.62-8.47,1.68-13.2.22-1,1-1.85,1.2-2.88.34-1.57.18-3.4.48-5,1.14-6.16,2.39-13.86,3.84-21.12,1.14-5.68,1.07-11.41,2.4-17.52.59-2.69,2-4.92,1.68-7.92-1.5-2.75-3.88-5.87-3.84-9.36,1,.34,2.56,7.85,3.6,7.68s.47-1.47.72-2.88c.66-3.63,2.76-11.65,3.36-15.12.5-.46,1.33-.58,1.92-1,.82-5.75,3-11.44,2.64-17.52.16-.88,1-1.12,1.2-1.92-.24-1.66-.08-4.4,1-5.52.19-3.09.89-5.67,1-8.88,4-5,4-14.48,5-22.56.44-3.32,1.85-6.79,1.92-9.84a14.49,14.49,0,0,1-.24-1.92c.32-1.74,2.1-3.26,1.44-5.52a25.76,25.76,0,0,0,3.12-13.92c1.31-2.09.86-5,2.64-7,.27-1.53-.86-2.19-.24-3.36-.36-.68-1.24-.84-2.16-1-.92,1.66.8,2.67.72,4.08-.12,2-2.4,3.77-2.88,5.76.51-1.79.67-3.81-.24-5.28.69,0,1.57.13,1.92-.24A67.22,67.22,0,0,0,214.08,42c-2.39-4.49-3.53-9.41-6.24-13.2-.85-1.19-2.29-1.8-2.88-3.12,2.64-.62,3.16,2.9,4.56,4.32a5.66,5.66,0,0,1,2.16,1.44c.64,4.44,3.16,8.82,5,13.68,0-.1.35,2.21,1,2.16,1.54-.12.24-3,.24-3.6,0-.94,1.17-.75,1.2-1.68-.6-3-1.83-5.37-2.64-8.16-.49-.73-1,0-1.68-.48-1.36-3.52-3.68-6.08-5.76-8.88,2.36,1.08,3.21,3.68,5.28,5A25.17,25.17,0,0,0,210,20.64a44.48,44.48,0,0,1-7.44-1.2A17.63,17.63,0,0,1,197,17c3.58.3,8,.59,11,2.4.88.16.92-.52,1.68-.48,1-.07.79,1.13,1.68,1.2a4.49,4.49,0,0,1,.24,1.92c5.14,4.4,5.45,12.43,8.64,18.48,2.42-3-1.79-8.41.24-12a4.06,4.06,0,0,1-1.44-3.6c3.48.32,1.86,6.54,3.84,8.88,2.33,0,.89-2.9,1.44-4.32-1.5-.88-3.57-4.3-2.16-5.76,1.65.11,1.14,2.38,2.16,3.12,2.46-2.54-3.15-7.56-5-4.32-.69-2.61-6.16-1.65-6-4.32,3.75.73,9.77,1.39,13.2,2.88.91.39,2.93,2,3.12,2.88.52,2.42-1.84,5.57-1.44,8.16.15,1,1.32,1.44,1.68,2.4,1.62,4.35-.63,9.18-.24,14.16.08,1.05.85,2.08,1,3.12.38,3.65-1.5,7.3,0,10.56,1.33-.83,2.18-2.14,3.84-2.64,1.36,1.08,2.67.72,3.84.48,0,1.3-1.22,2.36-.48,3.6,2.94-1,3.8-4.76,4.32-8.4.47-3.29,3.14-5.82,3.6-8.64,3-.79,5.35-3.41,8.64-3.12.78,1.17-1.23,2.46-.24,3.84,2.34-.05,2.2-2.6,3.36-3.84a10,10,0,0,0,5-1.2,164.15,164.15,0,0,0,16.32,3.6c1-.12.88-1.36,1.92-1.44,2.32.8,3.6,2.64,5.28,4.08.87,5.61-3.7,10.36-7.44,7-5.7.45-10-1.25-15.36-2.88-3.86-1.18-6.85-3.25-9.6-1.44-1.94,1.27-2,2.77-2.88,5.28-1.06,2.9-3.08,6-4.08,8.64,1.4,7-2.64,10-3.84,15.12a8.31,8.31,0,0,0,1.68,2.88c4.6-1.27,2.14,4.93,5,5.76.82-.46.21-2.35,1-2.88,4.24.48,4.54,4.91,9.12,5a43.91,43.91,0,0,1,5,3.6c2-1.27,4.37-1.83,6.72-.48.89-.07.38-1.54,1.68-1.2a4.15,4.15,0,0,0,1,.72c0,1.55-1.18,2-1.92,2.88-3.34-2.35-9-1.57-8.88,3.36,0,1.16,1.43,1,1,2.64,1.51,1.21,4,1.46,6,2.16,2.16-1.6,2-5.48,4.56-6.72.64.32.32,1.61.72,2.16,4.73,1.92,9.07,3.51,14.4,2.64,2-.32,3.73-1.82,6-1.44-1.14,4.12-7.5,1.49-9.6,4.32a49.71,49.71,0,0,0-11.28-3.6c.49,2.31,2.82,2.78,5.76,2.64a6,6,0,0,1,.24,2.4c3.2.46,4.33,4.08,7.44,3.12,1.59-.49,1.61-3,3.84-2.4.29,1.57-1.75.81-1.68,2.16,1.51,1,2.95-.62,4.56-1.2,3.91-1.39,8.91-1.67,11.76-4.08,2.13-1.79,4-3.86,7.68-4.08.83-.29,1.27-1,1.92-1.44,1.57.05,3.23.19,3.12-1.44-.9-1.29-3.86.35-4.56-.72,3.3-2.21,9.54-2.8,13.68-1.2.09.79.19,1.57.72,1.92,2.05.14,2.41-1.28,3.84-1.2,2.6.15,4,5.73,8.16,4.56,0-1.71-1.89-1.47-1.92-3.12.63-.65,1.52.9,2.4,0-1.34-2.29-4.74-2.53-7.44-3.6-3.91-1.55-7.62-2.69-12.48-1.92,2.55-3.28,9.64-.18,13,.24,4.88.62,7.92,4.46,11.28,5.76,4.37-.78,11.09,2.66,15.84,4.08,2.46.74,4.85,1.37,7,2.16,3,1.14,4.64,2.59,7.68,3.6.91,1.06-.48,1.64-1,2.88-.78,2.05-.27,4.93-2.16,5.52-1.67.52-4.66-1.45-7.44-2.4a93.66,93.66,0,0,0-13.92-3.36c-3.14-2.7-8.21-3.47-10.32-7.2-2.14.22-2.9-.94-4.32-1.44-4,.43-6.51-2.48-11.76-1.92-2.5.26-4.89,2.3-7.68,2.64-5.94.73-7.9,2.48-12.72,4.56-2.45,1.05-6.09,1.31-9.12,2.4-3.67,1.32-6.38,2.67-8.88,2.64-4,0-8-.7-11.76-3.36H273.6c-1.11-.09-1.36-1-2.4-1.2-3.63,3.35-4,8.44-5.76,12.72-.62,1.49-2.14,2.85-2.88,4.8-.87,2.31-1.63,4.89-2.64,7.44s-1.33,5.5-2.4,7.44c-.31.57-1,.65-1.44,1.2-.91,1.2-1.1,3.3-1.68,5-1.36,4.12-4.15,8.85-5,12.48-.29,1.18,0,2.28-.24,3.36-.59,2.35-2.39,4.54-3.12,7.44-1.21.47-2.82.54-3.6,1.44-1.22-1.14-3.29-1.26-4.8-1.44.32,1.5,2.14,1.21,3.12,1.92s1.2,2.13,2.4,2.64c1.76.08.79-2.57,2.4-2.64.76,1.46-.54,4.3.72,6-4.3-.5-6-3.61-9.6-4.8-.4.85.45,2.59-1,2.88,2.45,2.43,6.69,3.07,9.36,5.28,4-1,7.29.34,9.84,1.2-1.6,4.07,3.26,5.27,5.28,3.12.37,1-1.23,1.91-1.44,3.12a5.19,5.19,0,0,1-2.16-.24c-.8.19-1,1.93-.48,2.64,1.91.39,2.22-.82,3.36-1.2,1.55,1.22,3.58-.22,5.52-.24,1.29,0,3.22.83,5,1,2.5.18,5.16-.29,7.2,0,2.95.42,7.69,1.42,10.56.24.85-.13.59.85,1.44.72,1.15-.12,2-.51,3.12-.72a54.83,54.83,0,0,0,16.08,1.68c3.48-.25,7.11-2.11,9.36.24,7-.11,13.34-.26,20.4-.48.73,0,.93.51,1.44.72,8.12-.58,19.12,2,25.2-2.16,4.68,1.25,9.23,2.93,14.16,1.2.54-.1,0-1.27.48-1.44,1,.9,1.89,1.19,3.12.24.48.61-.75,1.6.24,2.16,1.37.17,2.36-1.05,3.6-.24.55-.33.6-1.16,1-1.68,4.46-.16,11-1.65,13.44,1.2,3.31-.13,5.79.51,8.4-1,1.21,0,.75,1.65,1.92,1.68s1-1.4,1.92-1.68c6.37.22,14,.15,20.64.24,1.26.06-.52,1.08.24,1.44,1.33.62,2.65-.23,4.32,0,.81-.23.92-1.16,1.2-1.92.94-.14.61,1,1.2,1.2a8.14,8.14,0,0,0,1.2-1.92c-2.2-1.24-2.62-4.26-5-5.28-1.1-.22-.84.92-1.68,1-5-.6-13.18-2.1-17.76,0-9.53-1.43-20.76.79-30-1-.83,0-1.13.47-1.68.72-17.1-.91-32.79-.26-49.44-.24-2.61,0-5.14-.75-7.68-.72-1.23,0-2.35.45-3.6.48-12.51.29-24.89-.92-37.44-1-9.82,0-21.79-.49-31.2-.72,3.3-2,7.68-.43,11.52-1a54.38,54.38,0,0,1,11.76,0c6.25.79,16,.32,24.24-.48,1.7,1.09,4.65,1.42,7.2,1,.09-1-1.59-.17-1.2-1.44,2.41-.5,2.61.84,3.36,1.44,2.13-2.17,10.18-1.4,13.92-1.92,0,1.51-2.16.88-3.12,1.44,4.63.64,9.31.75,14.16,1.2,4.61.43,10.31-.2,14.64,0,3,.14,6-.09,9.12-.24,5.48-.26,11.1.81,15.6.48.9-.07,1.61-.63,2.4-.72,1.29-.15,2.35.4,3.84.48,3.07.15,6.65,0,10.32.24,1,.07,2.4,0,3.6,0,3.32-.05,7.38.51,9.6,0,.75-.17,1.44-.85,2.16-1,1.21-.18,2.54.36,3.84.48,7.58.67,16.81-.68,24,.24,1-.22,1.27-1.13,2.4-1.2a44.22,44.22,0,0,0,15.12.72c2.26-.28,4-1.39,6.72-1.2,3.6.25,7.56,0,11,.48.11-1.68,1.73-3,1.92-4.8.06-.54-.36-1.1-.24-1.68.5-2.55,2.46-5,3.84-8.16,1.09-2.48,2.26-5.39,3.36-7.92,1-2.34,3.2-6.72,2.88-8.16s-1.59-1.22-3.36-1.92c-1.55-.61-3-1.6-5.28-1.68-.64-.48-.68-1.56-1.2-2.16-5.74-.35-10.07-4.64-15.12-4.08-.06,1.63,3.16,3.68,4.56,1.92.22.9,1.64.6,1.44,1.92-.57.74-1.13.25-2.16.24-.7.26-.48,1.45-1.2,1.68-3.12-1.55-4.77-3.28-7.2-6-.71-.8-.87-1.75-1.44-2.16-1.19-.85-4.45-1.79-6.24-2.4-6.24-2.14-13.92-4.86-19.92-5.76-.73.15-.67,1.09-1.2,1.44-7.94-2.94-21.92-3.21-23.28-12.48a11.64,11.64,0,0,1,.24-3.6c1-4.8,5-8.24,10.8-8.4.56,0,1.34.29,1.92.24s1.11-.63,1.68-.72c2.09-.32,4.27.33,6.24-.24,1.76-.51,2.41-1.76,4.08-2.4.25-3.34,3.44-3,6.24-2.88,1,.06,2-.65,3.12-.72a50.05,50.05,0,0,1,10.32.48c2.63.44,4.89,2.32,7.44,2.88,3.4.75,6.52.43,8.88,1.92a3.94,3.94,0,0,0,1.68-.48c10.36,3.65,23.48,4.07,36.24,4.08a28.33,28.33,0,0,0,3.12.24c2.51-.26,5.26-1.63,8.16-1.92s5.46-.55,8.16-1c6.26-.94,14.47-1,19.2,2.16,1.59,1.07,2,3.43,4.56,4.08a25.14,25.14,0,0,0,1.92,8.64c-1.38.35-5.43-.67-6.48.72a91.88,91.88,0,0,1,6.48,9.12c1.48,2.21,4.11,5.47,4.56,7.44.74,3.25-.26,6.13-.24,9.84a56,56,0,0,1-8.88,9.84c-3.54.76-7.21,2.76-11,3.36-2,.32-4.94.68-7.2,0-4.09-1.23-6.83-5.94-11-6.72-1.48.41-1,1.61-2.4,1.68-2.22.11-1.6-2.42-3.36-3.36a1.13,1.13,0,0,1-.72.24c-.24,1.6,1.53,2.65.24,3.84-2.05,0-1.93-2.07-2.88-3.12.06-.82,1.27-.49,1.44-1.2-2.68-2.62-5.76-1.84-8.16.24-.6.82.48,1.55,0,2.16-.74.17-.71-.41-1.44-.24-1.94.86-2.61,3-3.12,5.28-2.59,2.43-3,6.13-4.56,10.08-.83,2.06-2.41,4.35-3.36,6.72-.43,1.08-.65,2.56-1.2,3.84-1,2.33-2.53,3.45-1,6.24-1,.17-2.49-1-3.12-1.92a55.34,55.34,0,0,0,2.64-7.92c-.07-.57-.89,0-1,.24,1.56-7.16,5.57-14,8.16-20.88.4-1.36-1.38-.54-1.2-1.68.5-.54,1.76-.32,2.16-1,.16-1.87-2.05-1.94-3.12-1.68-1.8.44-3.33,4.59-4.32,6.72-1.26,2.71-1.58,5.39-2.88,7.92-1.39,2.72-4.26,4.87-4.08,7.92.17.87,1.83.25,2.4.72.34,1.18.14,2.9.48,4.08-1.1.67-2.73.8-3.36,1.92.43,2,3.57.06,3.6,2.64-1.64,1-3.14-.79-4.8-1.44-.51-.2-1,.17-1.68,0-2.05-.53-4.26-2.68-3.6,1.44-3.18,0-5-2.84-8.16-2.4-1.54.22-2.83,1.4-5,1.44-2.95.06-6.15-.52-9.36.48-.51.49.58,2.26-.72,2.4-1.4,0-.94-1.72-.48-2.4-1.28.29-2.29-.59-3.12,0a23.51,23.51,0,0,0,1.92,6c4.1,1.18,9.6,1,13.92,1.92,1.11-1-.5-2.53.24-3.84,2,.45,1.22,3.83,3.6,3.6,1.05-.1,1-.49,1.68-1.44.68,1.06,2.27,1.26,2.64-.24-.43-1.38-2.79.56-3.12-.72,1.3-1.84,2.65.34,4.32.24.33.31.15,1.13.48,1.44M148.08,6.48c-2.7-1.38-6.89-3.74-10.08-2.4,1.39,1,2.73,2.07,4.08,3.12,1,.08.65-1.11,1.44-1.2A25.07,25.07,0,0,0,149,9.36C148.85,8.27,148.08,7.76,148.08,6.48ZM136.56,9.36c2.09,2.23,3.06,5.58,6.48,6.48-1.75-2.89-3-6.29-6.48-7.44Zm-17.76,23c2.75-2.61,2.08-8.65,3.12-13-.31,0-.33-.31-.72-.24,0,.32-.42.22-.48.48-4.66,4.38-9.63,8.45-13.68,13.44-6.28,4-10.87,9.77-16.8,14.16C85.37,55.61,76.47,59.91,70.8,67.44c-7.61,5.67-15.41,11.15-21.6,18.24,2,.58,2.6,2.52,5.52,2.16C56.38,89,61,92.37,63.6,92.16c1.76-.14,3.57-3,5-4.32,5.07-4.64,11.23-9.52,17-14.88,9.59-8.85,20.22-17.84,29.76-26.16.18-1.17-1.49-1.39-.72-2.4,1,0,1.35.44,1.92-.24C117.16,40.18,119.12,36.43,118.8,32.4ZM221,44.4c-.17.55-1.66-.22-1.44.72A3.69,3.69,0,0,0,221,48.24c1.09-1.67,2-5.91,1.2-7.92A5.79,5.79,0,0,0,221,44.4ZM223,62.16a11.18,11.18,0,0,1,2.88,0c.37-3.67,1.87-9.65.24-13C224,52.8,224.54,58.66,223,62.16Zm-109.2-12c-4.32,4-8.62,8.59-13,12.72-1,.91-2.22,1.44-3.12,2.4C97,66,96.69,67,96,67.68c-2.57,2.47-6.76,3.43-8.4,7C79.12,79.84,73.32,87.72,65,93.12c.59,1.72-1.43,1.8-.72,2.88a9.12,9.12,0,0,0,2.64.24c4.37,2.58,11.28,3.71,17.52,5.76,3.13,1,5.68,3.75,10.08,3.12,1.7.85,3.38,2.77,5.28,2.64,1-1.07-.22-2.32,0-3.6.16-.93,1.08-1.31,1.44-2.16,1.51-3.54,1.3-7.62,1.2-11.28.54-.18,1.87.43,1.68-.48,4.54-12.18,5.36-28.08,10.32-39.84C114.17,50.39,114.15,50.09,113.76,50.16Zm116.4,15.36c.31,2.47-.65,4.68-.24,6.48,3-2.26,6.62-3.94,6.24-9.6A7.45,7.45,0,0,0,230.16,65.52Zm-7.44,2.16c-.4,2-1.26,4.23.24,5.52-.86.83-.37,3-1.92,3.12.06-1.18.09-2.33-1.2-2.16-.15,1.31.2,2.9,0,4.08.26.85,1.18-.85,1.44,0a6.75,6.75,0,0,1-1.2,2.88,10.56,10.56,0,0,0-2.88.72c-2.3,10.1-3.86,20.94-6.24,31a6.6,6.6,0,0,0,2.4-1.68c-.91-5.3,3.36-8.39,1.92-14.88,4.36-1.63-1.7-10.89,5.52-9.84,1.28-3.28,1-8.14,3.84-9.84-.34-3.56,1.86-7,.24-9.6C223.93,67,223.49,67.49,222.72,67.68ZM230.64,78c-.56,6.1-1.45,12.24-1.44,18.48,0,4.46.84,8.72.24,13.2-.26,1.92.08,3.52,0,5.52-.22,5.72-1,11.63-1,17.52,0,5.5-.31,11.58-.24,16.8a15.14,15.14,0,0,1,.24,2.4c-.18,1.21-1.09,2.26-1.2,3.6-.15,1.87.57,3.8.72,5.76.64,8.42-1.9,16-1.44,22.56,1.19-2.65,2.91-4.77,3.84-7.68-.37-1-1.24-4.13.72-4.08-.77,3.46,4.08,4.67,4.32,1.2-.17-1-1.67-.57-1.68-1.68.13-.75,1.39-.37,1.92-.72,4.37-11.79,9.19-23.13,14.16-34.32.69,0,.42,1,1.2,1,.57-.79.74-2,1.68-2.4a2.67,2.67,0,0,1,.48,1.92c-.9.79-1.9,1.77-3.12,1-.79,1-1.25,2.29-.24,3.36-1.32.12-1.51,1.37-2.16,2.16.48,4.37-2.76,6.75-3.12,11-.29.67-1,.89-1.44,1.44.35,3.32-2.46,3.45-2.16,6.72,2.4.16.68-3.8,3.12-3.6.54.18.09,1.35.24,1.92,2.75-2.11,3.55-7.25,4.32-10.56.36-.44,1-.57,1.44-1,.61-4.11,3.44-6,3.84-10.32,3.77-.81,1.37-6.59,4.56-7.68v-2.16a200.22,200.22,0,0,0,9.36-21.6c.5-.54,1.49.9,1.68-.48-.38-2-2.74-2.06-4.56-2.64-2.27,2-2.29,6.19-4.8,7.92-.12-1.83,1.11-4.31,1.68-6.24a3.26,3.26,0,0,1-.48-2.88,51.21,51.21,0,0,1-7.92-6.72c-3.56-2.36-9.15-2.69-10.56-7.2-3.06,1-4.67-2.8-7.2-3.84.14-2.33-1.1-4.45-1-6.72.08-1.36,1.66-3.21,0-4.08C233.33,75.89,232.41,77.37,230.64,78ZM36.72,102.72c-.21,2.3.14,8,3.84,7.92a61.88,61.88,0,0,1-3.12-7.92Zm451,9.84c-.83-1.1-2.91-.73-3.84,0-3.67-2.17-9.73-1.6-13,.48.57,1.3-.39,1.42-.48,2.64.24.88,1.92.32,1.68,1.68-3.84-1.52-6.84-3.88-12.48-3.6-2.56,1.94-6.06-2.69-3.6-4.32,2-.33,3.5,1,4.8,0A32.65,32.65,0,0,0,449,106.56c-1-3-6.32-2.34-7.68-.24v1.44c.71,1.21,3.56.28,3.36,2.4-3.16.44-4.62-.82-5-3.12.22-1.14,1.27-1.45,1.44-2.64a3.59,3.59,0,0,0-3.12,1.92c-.15,9.92,11.45,10.15,16.56,15.6.73.17.87-.24,1.44-.24,2.59,1.54,7.41,4.24,10.56,5,3.6.91,7.89.91,12.48,1,5.8.07,12.48,2.58,15.36-.72-1.46,1-6.1.47-6-2.88a1.56,1.56,0,0,1,1.2-.24c.83.53.24,2.48,2.16,1.92-.49-1.27.47-1.72,1.2-2.88-.79-.74-2,1.13-2.88.24-.32-1.28,1.28-.64,1-1.92-.18-2.3-4.31-.65-4.8-2.64,1.77-1.61,4.51-1.15,7.2-1,.09-2.66-3.52-.42-4.32-2.4a20,20,0,0,0-2.88,1.44c-1.61-3.85-8.1-1.34-11.28-3.6C479.75,111.23,485.49,116.83,487.68,112.56ZM363.84,106.8c-1.86.73-4.21-.73-5.52.24,1,2.81,5.93,1.75,6.72,4.8h1.44c.8.8,1.23,2,3.12,1.68.74-.86,1.25-2,2.88-1.92a6.38,6.38,0,0,0,.72-3.12c-1.32-.65-4.37-3.14-5.52-1,.84.88,3.16,1.42,2.4,3.12C366.9,110.46,365.7,108.3,363.84,106.8Zm62.4,3.84c.25.87,1.81.43,1.92,1.44,0,.6-.37.75-.72,1-1.69.4-2-2-3.6-2.4-2.13-.57-5.2.5-6.72,1.44a30.83,30.83,0,0,1,3.12,11c2,.77,4,1.6,4.32,4.08-.41.68-.85,2.16.24,2.4,1.08-.28.66-2.06,1.68-2.4,6.84,3.64,15.41,5.55,23.52,7.92,1,.26.73,1.83,1.92,1.92.48-2.77,6.6-1.47,4.08,1-.95-.25-.57-1.83-1.92-1.68-1.56,3.22,3.12,3.67,4.56,1.44,2.82,2.08,6.54,4.47,10.8,4.32-.09-1.61.92-2.12.72-3.84-2-.16-1.46,2.22-3.12,2.4-2.46-1.73,1.08-3.86,2.64-4.56,1.2,1.44,3.14-.27,4.08-1.2-.18-1-1.74-.66-2.88-.72-12.74-3.5-23.15-9.33-31.44-17.28-2.27-.21-2.94-2-3.84-3.6-.75,0-1.34.79-1.92.24-.18-2.54-1.59-3.85-2.4-5.76C428.23,106.85,427.79,109.4,426.24,110.64Zm93.12-.48a5.51,5.51,0,0,1,.24,4.08c1.62.72,2.7-.69,4.08-1,.89.68,0,1.11,0,2.16,1.42.14,1.54-1,1.92-1.92,1.31-1.17,2.72-2.24,3.36-4.08C526.12,108.34,522.1,109.62,519.36,110.16Zm-113.28,3.36c2.71-1.21,5.58-3.16,9.36-1.92.2-.52.62-.82.48-1.68C411.35,109.52,408.12,110.82,406.08,113.52Zm104.4-1.92c1.55.34,3-.68,4.08,0-2.32,1.19-7.21,2.25-10.56,1.44-1.28-.31-2.64-1.35-3.36.24.54.18.09,1.35.24,1.92.6.37,1.43.49,1.68,1.2,1-.1,1-1.22,2.16-1.2,3.61,1,6.25-2.45,9.6-1,1.26-1.05,3.55-1.09,4.08-2.88C516.11,110.42,512.17,109.38,510.48,111.6Zm-22.08.48c-.4.48,0,.3,0,1,3,0,7.88.68,7.44,4.08,1.27-.1,3,.31,3.6-.48-.05-1.6-2.37-1.77-1.44-3.6A38,38,0,0,0,488.4,112.08ZM73,116.88c1.4.75,3.91,2.44,5.52,1.44-.31-1.77-1.61-2.55-2.16-4.08-1.46.18-2-.53-3.36-.48C73.85,114.85,72.89,115.37,73,116.88ZM407,124.8c4.35,1.76,10.4-1.5,10.56-5.76.13-3.57-4.47-5.76-8.4-5-2,.37-2.62,2.31-4.8,1.92C403.57,119.44,404.53,123.78,407,124.8ZM91.2,116.16c.53,1.07,1.51,1.69,1.68,3.12,1.06-.14,1.59-.81,2.64-1C97.14,115,92,113.12,91.2,116.16Zm118.32,1.68c-.26,1.06.41,1.19.48,1.92a3.78,3.78,0,0,0-1.2,4.32c.89-.17,1,.41,1.92.24-.06-2,1.31-4.45.48-6.72C210.56,117.6,209.83,117.51,209.52,117.84Zm-143.28,1c-.4,3-3,5.95-2.16,8.64,3-1.1,2.37-5.79,3.6-8.64ZM72,120.24c-.67,2.69-1.73,5-2.16,7.92a3,3,0,0,0,2.16.48c1.42-1.5.79-3.82.24-5.76.32-.88,1.89-.51,1.68-1.92C73.67,120.33,72.95,120.18,72,120.24Zm5,4.32c1.06.31,1-1.15,1.68-.48.88.77,1,1.4.72,2.88,1.72.81,1.69-1.7,1.92-3.12C80.82,121.9,75.47,120.75,77,124.56ZM415.2,125c1.42.34,2.08,1.44,4.08,1.2,1.11.81,1.43,2.41,3.36,2.4,1.27-2.53-1.75-4.12-4.08-4.56-.2-.68-.28-1.48-.48-2.16C416.58,122.42,415.84,123.68,415.2,125Zm117.12,2.4c2.57-.43,4.64,1.55,7.68,1.44-.34-1.5-1.48-2.2-1.68-3.84C535.9,125.42,534.21,126.53,532.32,127.44ZM207.84,133c.18-1.34,1.74-1.3,2.4-2.16.37-1.07-.37-3.64.24-5C207,125.27,207.87,131.53,207.84,133ZM75.6,132c.82.06,1.15.61,2.16.48.33-.47.23-1.37.48-1.92a4,4,0,0,0,1.68-.48c-.2-.68.34-.62.24-1.2C78,126.14,75.27,129.13,75.6,132Zm430.8,1.44c-3.86.43-8.36-.55-11.76,1.2,2.92,1.69,6.78,2.93,4.08,7.2,2.13.77,4.9,1.85,7.2,1.68,2.24,1.28,3.52,3.52,5.76,4.8.55-1.56-.31-3.65,0-5.76,2.21-3.37,3.85-6.48,6.72-8.88,1.64-1.38,4.73-1.73,5.28-4.32C517.56,129.74,512.46,132.77,506.4,133.44ZM545,136.32c-1.71-2.19-6-6.57-7.92-4.56.08,1.84,1.71,2.13,2.88,2.88,1.41,2.67,4.67,4.55,5.52,7.92.66,2.64-.32,5.44,0,8.64,2.61-1,2.34-4.86,3.6-7.2A33.37,33.37,0,0,0,545,136.32Zm-8.16-1c-2.81-3.07-9.34-4.34-13.2-2.16-2.23,1.26-3.71,7.38-3.12,11.52.77,5.4,3.52,8.78,5.28,12.24,3.57,2.36,9.69,4.27,13.68.72C543.4,151.38,541,139.82,536.88,135.36ZM75.12,138c-.32.4-1.36.08-1.68.48-1.61,5.23-3.78,11.49-4.32,16.32,1.69.92,1.6-1.24,1.92-2.16a73.74,73.74,0,0,0,3.12-12.72c.9,0,.73,1,1.92.72a26.5,26.5,0,0,0,1.44-7C74.38,131.37,73.55,135.85,75.12,138Zm403.2-2.88c-1-.24-2.29-1.28-2.88,0a9,9,0,0,1,4.8,2.88c1.43-3.4,6.88-1.1,10.56-1.2.68-.68,1.49-1.23,1.44-2.64C487.57,133.95,483.41,135.4,478.32,135.12Zm36.48,13.44c-.71-.09-.61-1-1.68-.72a1.52,1.52,0,0,0,1.44,2.16c3.36.2,2.3-5.43,3.36-7.68,1.56.2,0,3.57,1.2,4.08-.1-1.76.54-4.05.24-5.76-.17-.61-1.37.58-1.44-.48.15-.89.65-1.43.48-2.64C514.71,138.71,515.44,144.32,514.8,148.56Zm-27.6-10.8c-2.67,0-3.39,1.9-4.56,3.36,1.19,2.91,2.79,7.12,6.48,6.72,1.34-.15,2.37-1.74,4.32-1.44a18.54,18.54,0,0,0,.72-3.36A22.82,22.82,0,0,0,487.2,137.76Zm-13.92.48c-.53,1.63-2.3,2-2.16,4.32,4,1,7,3.09,12,3.12-.93-2.51-5-1.9-7-3.36-.17-1.21,1-1.12.72-2.4C475.75,139.29,475,138.25,473.28,138.24ZM33.84,140.16c-1.7-.16-1.63,2-2.64,3.12-.75.21-1.67.25-1.68,1.2v.72c.46.1.6.52,1.2.48.88-.17.57-1.52,1.44-1.68C35.85,146.18,36.27,140.38,33.84,140.16Zm466.8,4.32c1.39,2.07,5.65,3.68,4.08,6.48a6.55,6.55,0,0,0,3.6,1.2c.38-2-.84-4.17-.72-6C505,146.13,502.82,143.33,500.64,144.48Zm-3.36,3.6a29,29,0,0,0,6.48,2.16C503.12,148.14,498.34,143.87,497.28,148.08Zm-294.48,4.8c-1.22,6.39-4.1,12.37-4.32,19a7.73,7.73,0,0,0-1.68,4.08h1.92c1-3.53,2.78-7.62,3.84-11.52.7-2.58-.92-5.52.48-7,1.12.1,1.38.29,1.92-.48-.48-1.58-1.68-1.8-1-4.08ZM484.08,175.2c2.5-.22,1.22-4.22,3.12-5,1.07-3.49,2.3-6.82,3.6-10.08.37-.06,0-.39-.24-.48C487.35,163.75,486.06,169.82,484.08,175.2ZM61.2,171.6c2,.31.78-1.81,1.2-2.64,1.77-1.91,1.63-5.73,2.64-8.4-.31,0-.33-.31-.72-.24C61.44,162.24,62.68,168.28,61.2,171.6Zm24.24,9.12c2.27-3.08,4.59-6.9,2.88-11.52C87.05,172.58,85.44,176.88,85.44,180.72Zm-10.56,5.76h1.68c.36-2.28,2.32-4.34,1.2-7.2.56-1.07,2.47-3.43,1-4.32A18.14,18.14,0,0,0,74.88,186.48ZM238.08,179c-3.16,1.54-4.2-2.47-6.48-1-.83,5.17-3.6,8.4-4.8,13.2,2.69,1.71,6.4,2.4,8.88,4.32.09,2.62-1.6,4.74-2.64,7-7.27,15.5-11.72,33.06-19,48.48,6.3.32,13.27,1.69,19.92,1a29.83,29.83,0,0,1,5.76.24c5.81.31,11.84-.78,17.52-.72,6.75.07,15.18.66,23,1,2,.08,4.22.06,6.24,0,16.48-.46,34.58,0,49.2,0,17.22,0,34.65-.49,51.36.48,16.37-1.18,34.82-.54,50.88-1.44,5.79-1.64,6.61-6.78,9.12-12,1.4-2.9,3.15-5.57,3.84-8.4-4.41,2.76-3.66,11.07-8.64,12.72a28.24,28.24,0,0,1-10.56.48c-3.27-.49-6.23-2-9.84-1.92-5,.11-10.61.95-15.36.48-.88-.09-1.52-.64-2.4-.72-1.1-.1-2.5.28-3.84.24-4.31-.12-9.07-1.54-12.72-.48-.82.24-1.39,1-2.16,1.2-4.1,1-7.05.5-11,.48-.55-.17.22-1.66-.72-1.44-14.8-1.31-33.07-.47-49.2-.48-1.69,1.49-3.6.58-5.76.48-7.24-.36-17.42.18-24-.72-.85,0-1.07.69-1.92.72a276.83,276.83,0,0,0-34.08-1.92c-.78.1-.15,1.61-1,1.68-6.28.09-14.5-1.55-20.88-1.44-2.1,0-4.47,1.36-5.76-.72.54-6.29,5.76-9.09,5.52-15.36,4.54-5.14,5-14.31,9.12-19.92,2.1-.54,3-2.29,5.52-2.4.23-3,1.3-5.1,1.44-8.16-1.83.28-3.5.7-5-.24-.14-1.4,1.45-2.32.24-3.36-2-.75-3.21,1.24-4.8,1.68a15.24,15.24,0,0,0-4.32-1c-1.27.86.64,2.24-.24,3.36-1.65-.76-2.27-5.7,0-6.24,1.12,0,.64,1.6,1.92,1.44,1.94-1.4,5.53-.49,7.92-.72,2.3-.58,2.61-3.15,3.12-5.52-2.33.13-5.15-1-7.92-.48-2.13.4-3.26,2.42-4.8,2.16C239.95,183,240.62,180.09,238.08,179ZM71.28,182.4c-1.82,1.51-1.7,3.5-2.64,5.76,3.27-.21,4.15-6.05,4.32-9.36C71.17,178.14,70.34,180.83,71.28,182.4Zm-57.6,1.44c1.52.93,3.31-1.09,5-1.44.89.07.86,1.06,2.16.72.43-2.13,3.87-1.25,4.56-3.12C21.6,179.57,16.21,181.39,13.68,183.84Zm255.84,9.84c-6-.48-11.11-1-14.88,1-.82,2-1.86,4.95-1.44,7.44,7.75,1.14,14.7.49,22.56.72,2.12.06,4.32.51,6.24.24,1.05-.15,2.06-.9,3.12-1,2.05-.11,4.36.64,6.72.72,2.76.1,5.75-.65,8.4-.48,7,.45,14.16,1.8,21.36.72,3.52,2.08,9.8.33,14.64.72.61.43.75,1.33,1.44,1.68,2.43-.95,4.59.71,6.48.24.74-.08-.63-1.22.24-1.44,3.18-.7,3.9,1.05,5.76,1.68.82-.23-.64-1.39.24-1.68,2.85.39,6.05-1,7.2,1-1.08.33-3.82-1-4.56.72,1.39,1.27,2.95.07,4.56,0,4.26-.18,9.06,1,13.68,1.2,2.1.07,4.24-.55,6.24-.72s4.47.84,5.76-1c-.25-1-2.45-.11-2.4-1.44,1.45,0,2.9.27,4.56.24,2.65-.05,7.38-.76,8.88.72-3.06.1-7.47.81-9.84,1,.93,1.74,5.06,1.42,7.68,1.2,1.58-.13,2.87-.82,3.84-.72.59-.29.64-1.12,1.44-1.2a57.62,57.62,0,0,1,20.4,1.44c-1.38,1.74-2.8,3.44-4.08,5.28.7,1.56-.27,3.44-.48,4.8-.61,3.92.36,8.9.48,12,.14,3.75-1.24,8.14,1,10.08,1.69,1.48,8.17,1.7,9.36-1.2a8.93,8.93,0,0,0-3.6-5c-.42-1.66,0-4.13-.48-5.76,1.71-2,7.77-4.26,3.84-7.44-1.72,0-2.42.94-3.84,1.2-.27-2.13-1.43-3.37-1.2-6,.72-1.36,3.42-.74,5-1.2,1.61-1.16,1.14-3.45.48-5.28,3.16.7,5.72-2.07,8.88-2.16,2.31-.07,4.23,1.21,6.72.72-.22-3.94-.41-7.91-1-11.52-1.6-.7-2.53.22-3.6.72-3.64-1.8-7.57-.29-11.76-.72-.68-.07-1.32-.6-1.92-.72-1.43-.3-2.56.19-4.32.24-5.4.16-11.42-.51-17.28-.24-4.83.22-9.39-.38-13.44-.24-2,.07-4.15-.43-5.52-.24-1,.13-1.79,1.27-2.88,1.44-2.49.39-7.94-.84-12.24-.48-2.71.23-5.89.84-7.68-.24-3.06,1.12-6.78.86-9.84,1-3.84.12-8-.78-12.24-.24-.8.1-1.38.45-2.16.48-4.78.18-8.92-1.46-13-1.2-.69,0-1.43.46-2.16.48-3.25.07-6.45-1.14-9.36-1-.93.06-1.78.5-2.64.48s-1.57-.63-2.4-.72c-2.32-.26-5,.58-7.44.48-4.63-.18-9.1-.89-13.44-1C281.13,198,275.47,194.16,269.52,193.68Zm170.88,2.16c0,1.74.53,3.87.72,6,.16,1.82-.65,4.43,1.2,5,1.55-2.94-.85-7.87-.72-11.76h-1.2C440.37,195.4,440,195.66,440.4,195.84Zm-211,2.64c-.46-.1-.43-.69-1.2-.48-.6.6-1.58.82-1.44,2.16-.12.76,1.19.09,1,1-.94,2.53-4.22,7.1-1.44,9.6.24,0,.29.19.48.24.83-.79,1.82-2.26,1-3.36H229A76.74,76.74,0,0,0,233,198C231.91,196.76,230.21,197.48,229.44,198.48Zm236.88,1.2c-.06.34-.4.4-.48.72-2.25,4-3.45,9.1-6,13.68-.74,1.33-1.62,2.11-2.16,3.36-.89,2.05-2,4.22-2.64,5.76-.88,2-.53,4.35-1.44,6.48-.32.76-1.2,1.26-1.68,2.16-3.14,6-5.76,13.75-8.4,19-1.49,2.95-6.91,4.51-10.56,3.12-1.54,1-5.08,0-7,.72-.75-.21-1-.91-1.92-1-7,.51-14.42-.7-21.36.24-2.87.39-4.71,1.28-7.2,1a14.1,14.1,0,0,0-4.32-.24c-5,.68-10.4-.57-15.6-1a83.52,83.52,0,0,0-9.6,0c-11.42.52-23.53.45-33.6,0-.64.32-.72,1.2-1.68,1.2-5.36-.73-10.73-.44-16.32-.72-9.52-.48-19.82.41-28.8-.48-2-.19-4.32.64-6.72.48-6.37-.43-14-1.79-19.92-1-4.89.68-11.35-.23-16.56.24-9.9.9-18.88.33-28.32-.24-3.47-2-6.27,1.77-6,5.76,1.29.78,3.2,1.41,3.84-.24.64.4.63,1.45,1.92,1.2.78-.18.37-1.55,1.2-1.68a3.35,3.35,0,0,1,1.2,1.68c1.72-.85,4.4.1,6-1.2,1,.57,1.11,1.93,2.4,2.16.61-.67,0-2.57,1-2.88,1.6,0,.51,1.85,1,2.64.89.17,3,1.09,3.36.24-.5-.14-1.58.3-1.68-.24-.14-.78.16-1.12.24-1.68,3.05-.87,4.67,2.47,8.16,1.2,1.47,1.55,3.46-.24,4.56,1.44,1.46-1,1.75-1.33,3.36-.24.71-1.27,1.43-1.1,3.36-1,.29.69-1.44,1.09-.24,1.2.71,1.05,2.88.65,4.56.72.88-.24.63-1.61,1.68-1.68,1.5.14,1.64,2.78,3.12,2.16.92-.69-.9-1.45,0-2.16a13.44,13.44,0,0,0,4.56,2.16c.9-1,2.64-1.19,4.32-.72.78-.85-1-.63-1-1.44,2.8.54,10.46,3,12,0a373.2,373.2,0,0,0,39.84.24.87.87,0,0,1-.72-1.2c.65.55,2.63-.23,2.88.72-.17.63-1.37.23-1.44,1,.73.19,1.82.88,2.64.24.75-.31-.6-1.35.48-1.44,1.77.85,4,.69,6,1.2.8.21,1.3.87,2.16,1,1.08.11,2.49-.41,3.84-.48,1.86-.1,4,.32,5.76.24,6.51-.29,12.92-1.41,19,0,.85,0,1.07-.69,1.92-.72,4.16.85,10.1,1.49,14.16,1,4.8-.63,10.49-.22,16.08-.48,10.41-.49,21.14.48,30.72.48a74.64,74.64,0,0,0,8.4,0c.69-.09,1.47-.65,2.16-.72,3.56-.34,7,.54,10.08-.24-.92,2.12-3,3.13-2.88,6.24,1.6,1.36,4.92,1,6.48,2.4,1-.57.66-2.38,2.16-2.4.58,1.38-1.38,2.09-1,4.08-6.11,11.57-11,24.35-16.32,36.72v2.16c-1.24,3.58-3.43,7.33-4.56,10.56-.49,1.42-.39,3-1,4.32-.47,1.09-1.54,1.76-1.92,2.88-.21.61.12,1.35,0,1.92-.33,1.6-1.71,2.71-1.68,4.32,7.08.24,13.05.57,20.16.24,2-.09,4.64-1.29,6,.48.35,1.15-1.38.22-1.2,1.2,2.07-.58,3.66.83,5,1.68,1.72-2.92,2.45-6.06,3.36-9.12,1.61-5.4,3.84-8.81,5.76-13.68a110.37,110.37,0,0,1,10.08-19.44c1-1.51,2.42-2.76,3.36-4.32.47-.78.51-1.86,1-2.64s1.88-1.73,2.64-2.88c.58-.88.63-2,1.2-2.64s1.7-.85,2.4-1.44c1.56-1.32,2.71-3.76,4.32-5.52,1.83-2,3.84-3.23,5.28-5.28,6.06-3.7,10.19-9.33,16.32-13-2-6.93-6.21-11.55-8.4-18.24-3.5-2.82-4.29-8.35-6.72-12.24-.12-.76.43-.85.24-1.68-1.27-3.52-3.36-6.72-5-10.32-2.75-5.9-4.43-12.48-9.12-15.84-.34,1.56-2,2.52-2.64,3.84-.73,1.5-.42,3.4-1,5-.75,2.26-2.66,4.68-3.84,7a108.69,108.69,0,0,0-6.24,14.4c-2.45,6.85-5.73,12.36-8.4,18.48-.86,2-1.51,4.24-2.16,6.24s-1.17,4.3-2.88,5.76c1-10.91,7.26-18.66,10.8-27.84.12-.76-.43-.85-.24-1.68,4-9.52,9.58-18.74,12.72-28.32-1.5-.74-3.22-1.26-3.84-2.88A8,8,0,0,0,466.32,199.68ZM191.76,213.84c.91-3.62,1.93-5.8,1.68-10.32-.45.05-.53-.27-1-.24C191.58,206.19,191,211.36,191.76,213.84Zm100.8-9.36c.46,2.06,2.61.69,3.6,0,2.24,1.37,8.19.84,10.56,0C302.13,204.1,296.86,203.16,292.56,204.48Zm107.28,3.6a4.31,4.31,0,0,1-1.2,2.4c0,1.05.17,2.25-.72,2.4-1.25-1.47-2.54-2.9-3.84-4.32-4.12-.68-5.73,1.15-8.88,1.44a4.14,4.14,0,0,1-3.6,3.84c.83-2.68-1.78-3.31-3.12-4.56-4.71,1.21-4.54,5.29-2.16,9.12.09.89-1,.63-.72,1.68,1.93,3.07-1.57,14.07-4.32,8.88-2.45-4.63-.7-16.21-5-19.44-.17,2.23-2.75,2.05-3.6,3.6-.15,2.41,0,6.81-.72,9.36,1.05,1.51,1,4.15,1,6.72.32.88,1.56.85,1.68,1.92-1.43,1.35-4.09,1-4.56-1,1.36-2.21.18-5-.24-7-.56-2.62.39-6.16,0-9.12-.26-2-.79-4-1-5.52a10.1,10.1,0,0,0-4.32-.48c-1.81,1-1.82,5.52-1,7.68-.95,2.7-.58,6.76-.72,9.84-.65.15-.6,1-1.44,1-1.26-2.34-1.29-5.91-4.56-6.24.33-1.77-1-1.84-1-3.36,1.16-1.48,3.38-1.9,5-2.88a45.11,45.11,0,0,0,.48-6.48,6.32,6.32,0,0,0-7.92,4.08,6,6,0,0,1-2.4-4.08c-2.06-1.35-4.35.4-5.52,1.44.24,4-.42,7.95-.48,10.32.35.45,1.32.28,1.2,1.2a121.59,121.59,0,0,0,0,16.32c1.38.42.9-1,1.92-1,2.53-.45,4.19,1,6,.48.55-2.11-1.26-4.6.24-6.72,2.45,1.47,3.79,4,5.52,6.24.89.56,2.39-.32,3.84,0,.77.19.69,1.23,1.2,1.68,3.19-1.13,7.25-1.39,10.32-2.64a32.54,32.54,0,0,0,1.44,3.84c3.4.07,7,1.6,9.84,1,2.18-.49,3.85-3.43,4.32-5.52.32-1.44-.47-4.28,1.44-4.32-.26,3.43,0,8.06,2.88,9.6,1.32,0,.77-2,2.16-1.92,3.7,1.92,7.17-1.71,9.6-3.36.67.91-.77,1.36-.48,2.64,1.87,1.38,4.08,3.07,6.48,3.36,6.83.83,9.08-5.13,9.12-12-1.06-1.27-1.52-3.12-2.16-4.8-.55-.57-1.69-.55-1.68-1.68.42-1,2.08-.8,2.64-1.68.78-3.92.52-10.47-2.4-12.24a2.16,2.16,0,0,1,1-1c1.22.78,3.21,1.34,4.56.24C409.24,207,402.46,204.14,399.84,208.08Zm-88.56,3.84a6.91,6.91,0,0,0-4.32-3.84c-1.64,1.65-2.17,4.35-2.16,7,0,5.58-1.23,12.39-.24,17.28.26.78,1.25.83,1.44,1.68a6,6,0,0,0,.24,2.4c2.34-.46,3.38-2.22,5.52-2.88.22-1.63-1.07-3.45.24-4.08,2.38,1.34,2.26,6.67,5.52,6.48,4-.24,2.06-10.6-1.92-10.56-.2-2.26-3.78-3.39-1.68-5.76.77-.05,1,.43,1.92.24,2.57-2.64,5.08-8.78,2.88-13.2C315.11,207.27,314.78,211.18,311.28,211.92Zm-90-5c-2.32,3.36-3.58,7.78-4.8,12.24,2.69-1.55,2.15-6.33,5-7.68-.93-1.82,1.36-2.86.48-4.56Zm69.6,13.44c-.21,2.88-1.57,9-1,11.76.37,1.63,2.27,2.73,2.16,4.32,1.2-.4,2.59-.61,3.84-1,2.51,2.14,6.42-.14,7.44-2.4-.8-1.36-.42-3.9-1.68-4.8-.78-.5-2.61.05-3.36-.48.45-1.39-.76-2.65-1-4.32-.36-3.06,1-6.88.72-10.08-.25-2.74-1.75-4.1-2.4-6.24C289,207.17,291.32,214.35,290.88,220.32Zm41.52-11.76c-1.69-2.29-8.85-.46-10.56.72-3.54,7.31-1.87,18,.24,25.92,3.26.87,9,3.9,12,1.2a34.31,34.31,0,0,0-.72-4.32c-1.16-1.4-3.33-1.79-5-2.64.15-1-.31-2.55.24-3.12,1.17-.21,1.13.79,2.4.48,3.27-.92,1.27-3.94,1.68-6.72-2.05-1.34-7.24-2.42-3.6-5.76,1.57.05,3.11.07,3.84-.72C333,211.68,333.29,209.77,332.4,208.56Zm-75.12.72c-.33.31-.24,1-.24,1.68-2.87.78-2.7,4.83-2.88,8.88-.27,6-1.3,11.61.24,15.6,1,.48,2.2,1.4,3.6.72a17.67,17.67,0,0,0,1.2-11.52c.44-.36.6-1,1.2-1.2,5,.16,7.65.19,11-1.68,1.27,2.26-1.89,4.75,0,7.2-.14,1.05-.87,1.53-1.2,2.4,1.25.83,2.63,1.53,2.88,3.36,2.23-.46,3.4,1.37,5,1.44,1.23,0,2.47-1.42,3.84-.24,4.49-2,6.75-8.6,7.44-14.64.27-2.32-.66-2.56-1-4.08a23.71,23.71,0,0,0-4.32-9.12c-1-.23-1,0-2.16,0,.1.89,2.21.68,1.44,1.68-1.28.78-2.54-.27-3.6-.48-4.27,1.57-4.58,7.1-7.44,10.08-.74-.62-1-1.67-1.92-2.16-3.11-.7-6.16.84-9.36-.48,2.11-2.35,8.42-2.48,11.52-1.68.63-.75-.26-1.52,0-2.64-.76-.45-1.46.52-1.68-.48,1.11-.89,2.57-1.43,3.6-2.4-1-.81-2.44.73-3.12.24s-.82-1.58-1.68-1.92C265.8,208,260.69,207.88,257.28,209.28Zm182.4,12c-4.33-3.31-3.93-13.78-12.24-11.52-1,9.32-.44,18.82-1.44,28.08,2,3.24,8,3.38,8.64-.72.6-3.67-3.4-10,0-12.48,1.21,5,4.71,7.77,5.28,13.44,1.36.37,3.16-.25,4.56.48,5.28-5.5,1.6-19.63,3.6-28.32a2.89,2.89,0,0,0-3.36-.72c-.45,1.57,1.14,5.23-.48,6.72-1.32-1.56.46-6.22-1.44-7.2C439.65,211.17,440.38,217.35,439.68,221.28Zm-216-9.84c-2.37,3.31-4,7.4-5.76,11.28-.42.07-1.29-.77-1.2.24-.12.76,1.1.18,1.2.72-.25,1.51.09,3.61-1.68,3.6.16-1,1.06-1.34,1-2.64-.31-.33-1-.24-1.68-.24-.13,2.1-2.1,2.38-2.16,4.56.49.3,1.22.38,1.2,1.2,0,2-3.08.76-2.64,3.12-.17.65,1.13-.17,1,.48-.16,2.08-.9,3.59-2.64,4.08.12,1.48,1.62,1.58,1.68,3.12-1.17.78-1.93,2.6-3.6,2.16-2.38,3.31-2.61,9.75-6.72,10.56-.13,1.49,1.11,1.61.72,3.36-.73.17-.87-.24-1.44-.24-1.37,1.35-.83,4.61-3.12,5-1.26,0-2-1.15-2.88-.24-.17,1.21.66,1.42.72,2.4a10.91,10.91,0,0,1,7.2,1.2c.48-.48,0-1.94.72-2.16,1.94.34,2.21-1,3.6-1.2-1.57-1.5-1.38-3.11-1-5.76a4.67,4.67,0,0,0,2.64-2.64c-.24-.48-1.06-.38-1-1.2.93-1.15,1.52-2.64,2.88-3.36.64.42.62,2.45,1.92,1.44.19-1.31-1.57-.67-1.44-1.92.42-.22.4-.88,1-1,.76-.12.54.74,1.44.48,2.38-6.82,5.74-12.66,7.68-19.92-.6,0-1.16,0-1.2-.48a4,4,0,0,1,.48-1.68c.78.14,1.12-.16,1.68-.24-.12-2.76,2.4-2.88,1.92-6-.93-.13-1.17.43-2.16.24.06-.7-.54-.74-.48-1.44,1-1.14,2-2.28,4.08-2.4a5,5,0,0,0,.72-2.16,4,4,0,0,1-1.68-2.4ZM30,218.16a5.32,5.32,0,0,1,1.44,7.92c2.63,2.73,4.37,6.35,7.44,8.64,1.55-.61,1.54-2.78,2.88-3.6a13.48,13.48,0,0,0,4.8-1c-2.44-4.36-6.68-6.92-9.84-10.56H34.56C34.88,217.19,30.19,214.32,30,218.16Zm17.28,2.64c-1.29.09-1.21-1.19-2.64-1-1.08,1.8,1,2.28,1.68,3.12-.14.78.16,1.12.24,1.68,2.5,2.77,5.06,4.6,9.84,3.6,1.46-.3,3.24-.59,4.8-1,2.06-.49,4.94-1.42,5.28-2.88-1.66-1-2.2.94-3.36,1.2-3.41.43-6.82.33-7.2-2.88C52.42,222.94,49.88,217.72,47.28,220.8Zm27.84-.48c-1.15,1.86-.56,4.14-.24,5.52.23,1-.4,3.2,1.2,2.88,1.31-1.82,0-4.69-1-5.76a2.9,2.9,0,0,0,1.2-2.16C75.86,220.7,75.89,220.11,75.12,220.32ZM494.88,228c-.28-.78-.41-2.66-1.44-1.92.33,3.19,2.14,7,3.36,10.08.57.18,1.66.47,2.16,0,.36-2.76-1.49-3.31-1.92-5.28,1.27-1.82-.47-6.25-2.4-7.2C493.34,225.48,496.83,227,494.88,228Zm-255.12.48a5.89,5.89,0,0,0,3.6-1.2c.61.35.78,1.14,1.92,1a2,2,0,0,0-.72-2.64c-1.13,0-1.23,1-1.92,1.44a20.38,20.38,0,0,0-1.2-1.68C239.3,224.76,238.75,227.42,239.76,228.48Zm-36.48,13c3.09-.42,3.75-4.31,3.84-7,.47-1.4,2.6-3.6,1.2-5.28A32,32,0,0,0,203.28,241.44Zm-161-1.92c2.11.13,4.33,1.16,6.48.48a3.19,3.19,0,0,0-1.44-2.16c-2.48.93-4.25-.41-5.76-1.2C41.34,238,42.15,238.41,42.24,239.52Zm31.92,3.36c.25,1.43,1.67,1.69,2.4,2.64,3.8,2.17,8.56,2,13,2.88,1.64.32,3.16,1.18,4.8,1.44,2.15.34,4.44.1,6.48.72.82.25,1.34.82,2.16,1,4.15.73,8.57.27,12.72,1.2.66.15,1.22.76,1.92,1,6.92,1.92,14,2.48,20.88,3.84,5.19,1,9.89,2.05,14.4,1.92-.95-1.05-4,0-4.32-1.68.34-.16,1.94-.22,1.68-1.68-1.25-1.38-1.94.59-3.12.72-2.6-2-7.48-1.8-11.52-2.4-.2.63.73,1.32,0,1.68-1.18-.1-1.13-1.43-1.92-1.92-7.07-.85-13.31-2.52-20.16-3.6-1.92-2.17-5.86-.61-7.68-1.68-1,2.06-3.5.23-4.32-.72-6.09.94-11.59-2.57-18.48-2.4a9.9,9.9,0,0,0-3.36-1.92c-.34.3,0,1.27-1,1C76.8,244.69,76.17,242.12,74.16,242.88Zm33.6,43.92c.23-1-1-2.28-1.68-3.6-1.62-3-3.69-7.75-5-10.32s-2.08-6.45-3.36-9.6c-1.51-3.71-3.38-5.86-3.36-10.08-1.64-1.64-3.88-2.68-7.44-2.4-2-.79-6.9-3.36-9.36-2.88-3.6.69-.12,4.57,1,6.72,1.34,2.68,3.59,6.37,4.32,8.4.23.63.27,2.09.48,2.64.31.83,1.08,1.35,1.44,2.16,1.8,4.07,3.06,8.1,4.8,11.28.42.54,1.7.23,1.92,1,2.14,4.26,3.5,9.3,6.24,13,1.33-1,2.78-2.8,5.28-1.92C102.87,288.8,107.27,289,107.76,286.8ZM104.4,263c1.19.57,2.59.93,2.88,2.4-.08.72-1.33,1-.72,1.68,0,1.41,1.56,1.16,1.92,2.16.24,2.16,2,2.76,1.92,5.28a29.14,29.14,0,0,1,4.56,7.68c-.12,1.32,0,2.38.72,2.88a19.09,19.09,0,0,1,10.08-.72c.43-1.74,4.27-2.38,5.28-.72,2.13-1.72,5.18-.32,7,1a8.13,8.13,0,0,1,5.52-.72c1.34.35,2.44,2.26,3.6.48-2.05-3.77-.6-8,3.36-8.88,1.37-3.83,1.47-8.92,3.84-11.76,2,1.61.2,4.31-.48,6.24-.78,2.23-1.41,4.64-1.92,6.72.48,1.36,2.41,1.27,4.32,1.2,1.76-4.4,2-10.34,5-13.44.93,4.79-3.33,9.55-2.88,14.64.75.5,1.34-.22,1.92.24,2.83,2.29,7.33,2.91,11.28,4.08,1.2-1.2,1.76-3.26,2.64-5.28,1.61-3.71,4.55-7.07,2.16-11.76-4.89-.84-10.2-2.37-15.36-2.16a56.78,56.78,0,0,0-12.72-2.4,49.52,49.52,0,0,0-17-3.12c-5.11-3.29-14-2.85-20.16-5-3.22,1.75-6.91-.88-10.32-1.2C103.27,255.29,104,259.07,104.4,263Zm544.8,26.64c-.5-.61-1.35-.79-1.92-1.44-1.95-2.22-3.35-5.11-5.52-7-1.46-1.25-3.05-2.42-4.56-3.6-3.71-2.9-8.12-4.27-12-7-.64-.44-1-1.27-1.68-1.68-2.8-1.77-7.28-2.56-8.88-5.28-8.84-3.44-17.75-7-28.08-7.44-6-.25-10.88-.83-16.32,0-2,.31-3.86,1.18-6,1.68s-4.13.36-6.24.72a119.74,119.74,0,0,0-26.4,7.44,9.16,9.16,0,0,1-.24,2.64c2.42.46,1.83,3.92,3.84,4.8,1.77-2-.72-4.26-.24-6.24,4.83-3.49,12-4.38,18.48-6,1.2-.3,2.14-1.07,3.36-1.2,3.25-.36,6.58.6,9.6-1a3,3,0,0,0,1.68,1c19.46-2.06,35.43,3.5,49.44,9.84.55.61.91-1,1.92-.72.38.35.19,1.25,1,1.2,2.61,1.1,4.2,3.11,6.24,5,3.39,3.19,7.63,5.53,11,8.64,6.85,6.25,11.65,14.3,17.52,21.6a3.93,3.93,0,0,1,.48,1.68c.53.52,1.33.75,1.68,1.44-2,1.94-4.59,3-7,4.56s-4.56,3.35-7,4.56c-3.46,1.75-6.82,3-9.36,5.52-.82.8-1.16,1.91-2.16,2.64-1.62,1.19-3.79,1.43-5.52,2.4-4.11,2.31-7.21,6.09-11.28,8.16a4.54,4.54,0,0,1-1.92.24c-.32.48-.56,1-1.2,1.2h-1.44c-3.27,1.77-5.89,4.22-8.64,6-1.37.88-3.1,1.25-4.32,2.16s-1.6,2-2.88,2.64c-1.81.92-3.72,1-6,1.68-1.44,1.2-2.18,3.1-4.08,3.84-.67-2.15-4.57-2.28-3.6-5.28,1.2.72,3.38.4,4.08-.72-2.55-1-4.54.14-6.48-1,.23-1.87-.77-3.64-.24-5,1.18.17,1.21,1.51,2.16,1.92,2-.09,2.52-1.64,3.6-2.64,1-.19.45,1.15,1.44,1a35,35,0,0,1,6.72-5.28c.76-.12.54.74,1.44.48,2.91-2.21,6.53-3.71,9.6-5.76.63.1.72.72,1.44.72.34-.62.33-1.59.72-2.16,9.54-5.34,18.24-11.53,28.8-15.84.86-2.92-1.44-8.66,1-10.08,2.27,1.49,3.27,4.25,4.8,6.48,4.73-1.1,6.75-6,12-5.76,0-1.8-1.65-1.88-2.64-2.88-2.69-2.71-3.41-7.19-6.48-9.6a6.87,6.87,0,0,1-3.6,2.4c-.08,1.19-.69,2.89-1.92,2.16-.1-3.6,4.3-3.32,4.32-6.24,0-2.52-3.27-3.69-4.8-5-2-1.79-3.93-4.31-6-4.8-.69.19-.6,1.16-1,1.68-5.47,5-10.49,10.47-16.08,15.36,4.26-7.1,11.77-11,15.84-18.24-3.67-3.21-7.22-6.54-12.72-7.92-.83.52-1.2,2.55-2.64,1.68.34-1.1,1.4-1.48,1.44-2.88-3.5-2.65-8.32-4-13.68-4.8-.81.47-.41,2.15-1.92,1.92-.58-.65.26-1.33,0-2.4-4.58-1.42-9.53-2.47-14.16-3.84-.86.26-.29,2-1.44,1.92-.8-.24-.2-1.88-.72-2.4-4.18-.63-10.2-1-13.92,0-1.36,1.52-.86,4.9-2.16,6.48-.62-1.93.19-4.58-.24-6.24-4.92-.45-10.88-.47-14.88,1.2-.07,3,.25,6.93.24,9.84,0,5.63,1.36,10.37,1.2,13.92-1.16-.21-.75-2-1.92-2.16-3.17,2.81-.81,8.57,1.92,10.32.45-.9-.62-3.52.48-4.32a33.91,33.91,0,0,1,6.48,15.6c-1.63,1.36-.88,4.69,1.68,4.56.91-.93-1.38-1.23-.48-2.16,3.72.09,1.9,4.93-.72,4.8-3.62-3.31-3-9.55-7.2-12.48.51,1.73,1,3.44,1.68,5-.75,0-.82.62-1,1.2-.17,11.69,5,18,8.88,25.68-.17,1,.23,1.37.24,2.16.28.6,1.52.24,1.68,1-.51,2.3,1.14,4.43,1.44,6.72,2-.38,5.11.24,5.28,1.68.24,2-3.49,2.38-6,1.92-.27,1.39,1.36.88,1.44,1.92-2.43,1-3.46,3.27-4.56,6-1.27,3.16-2.2,4.58-.72,7.68a19.64,19.64,0,0,0-1.68,3.12c-2.7-.16-7,.85-7.2,3.12,4.13.05,6.3-1.86,10.56-1.68,1,.27,1.17,1.39,2.64,1.2-2.58-1.92-3.73-5.08-2.88-9.84,2.24-1.84,3.57-4.59,7-5.28a9,9,0,0,1,.48,1.68c-.31.89-1.63.77-2.16,1.44a14.14,14.14,0,0,0,0,9.6c.64.86,1.58.55,2.4,1.44.63.69.25,3.16,2.16,1.92-.15-1.79-1.87-1.85-1.92-3.6,0-.9,1.49-4.53,2.88-5.52a24.23,24.23,0,0,1,6.24-1.92c3,.58,3.13,5.49,2.4,7.92,1.44-1.44,1.46-4.3,2.88-5.76,2.29,1.54-.1,3.6-.48,5.28,5.89-1.87,9.4-6.12,11.52-11.76-2.72,1.2-3.24,4.6-5.52,6.24-.55-3.89,2.65-8.2,6.24-7.2.68-1,.34-3,1.68-3.36,1.57.44,2.35-.47,2.88-1.68-.08-.56-1-.23-1.2-.72,1.77-2.88,6.13.79,7.68-2.64.82-.53-1.17-1-.24-1.68,1.75.48,2.53.36,3.6-.72.17-1.18-1.1-.91-.48-1.92a9.11,9.11,0,0,1,3.84-.72c5.18-3.54,11.21-6.23,15.84-10.32,3,0,3.42-2.5,6.72-2.16.45-.83.71-1.85,1.2-2.64,2.21-.75,3.32-2.6,5.76-3.12,4-3.94,9.07-6.77,14.64-9.12.81-1.3,3.86-1.53,3.12-3.6-.37-.75-1.84-.4-2.88-.48C655.74,302,653.52,294.89,649.2,289.68ZM510,261.12c-4.11-2.94-10,4.08-13.68,7.2-1.73,1.46-4.11,2.87-5.28,3.84-.25.55-.15,1.45-.48,1.92a2,2,0,0,0-1.44.24c-4,3.44-6.41,8.19-10.08,12-.65.68-1.55,1-2.16,1.68-3.92,4.41-5.11,11-9.6,15.12-5.51,11.93-11.44,23.45-13.2,39.12.83.33,1.13-1.08,1.68-.24.08,1,0,1.77-.48,2.16-.56-.08-.9-.38-1.68-.24-1.18,2.26-1.3,5.58-1.2,9.12-.42.71-1.5,2.86.48,2.64.52-1.16-.18-3.54,1.92-3.12.53.47-.47,1.75.24,2.4,2.76,0,.89-4.55,2.64-5.52.78.1,2.08-.31,2.16.48-1.42.62-2.69,4.55-1,6,1.53-.17.51-2.08,1-2.88.95-.15,1.39.94,2.16.24a80.56,80.56,0,0,1,.72-11.28,9,9,0,0,0,1.68-.48c.42-2.94,2.53-6.65,1-9.36.11-3.21,2.71-7,2.64-10.32,0-1.79-1.79-3.7.24-4.32,1.54,1.09,2.47-.55,3.36-.48-.08.91-.8,2.08-.24,2.88,1.55-.85,1.47-3.33,2.4-4.8-.08-.56-1.14-.14-1-1,.53-1.05,1.42-.28,2.4-.72,1.4-4.92,5-7.64,6-13l1.92-1c7.62-10.38,15.5-20.5,26.88-27.12.53-.19.31-1.13,1-1.2,2.4.16,2.76-1.72,4.32-2.4C515.61,266.07,511.34,262.08,510,261.12ZM497.28,390a4.26,4.26,0,0,1,5.76-1.2c.94-.34.78-1.78,1.92-1.92a10,10,0,0,0,2.88.24c1.81-1.39,5.69-.71,7.2-2.4,2.21.65,2.22-.49,3.84-1,.87-.25,2,0,2.64-.24,1.16-.47,1.75-1.8,2.88-2.16,1.82-.58,3.72-.12,6-.24,1.6-1.26,2.5-2.24,5.52-1.68.86-1.14,2.08-1.92,1.68-4.32.29-.88,2.81-1.9,1.92-2.4-1.44.24-3.12.24-4.56.48-1.57-1.19-3.59-.36-5.76-.24-5.21.29-11.7.21-16.8.72s-11.79,2.68-13.2,0c1.71-.73,4.07.7,5-.72-3.18-.36-7.73.53-9.6-1.68,1.65-1.25,3.12,0,5-.48,1.72-.44,2.38-1.95,3.84-1.92a5.88,5.88,0,0,1,2.88,1.44c-.79.58-.08,1.19-.24,2.4,8.18-.71,16.14-1.38,25-1.92,1.12-1.62,3.09-4.61,5.28-3.6-.26,1.39-2.86,1.56-2.4,2.88,5.11,0,7.91-1.4,12.48-1.44.84-.35.81-1.58,1.68-1.92,6.15-1.53,10.61-4.75,12.48-10.56-.28-.76-1.66-.43-1.68-1.44,0-1.18.12-2.28,1.2-2.4.63.57.6,1.8,1,2.64,2.43-1.12,0-6,3.6-6.72.14-4.94.42-10.1-3.36-11.76,2.1-2.8-2.14-4.74-1.44-7.68-.73-1-2.25-1.28-2.88-2.64-.26-.56-.08-1.9-.48-2.88-1.23-3.06-3.72-6.21-3.12-9.12-.19-.06-.47,0-.48-.24-1.48-.52-.9,1-1.92,1-1.61-.78-.41-2.92-1-4.8-2.32-3-4-6.54-6-10.32-1.74-3.33-3.81-7.14-5-9.84-.24-.54-.16-1.39-.48-1.92-.48-.8-1.35-1.06-1.68-1.92-1.09-2.83,0-6.62-2.16-8.88-.54-.57-1.43-.36-1.92-1.2-1.34-2.18-1.63-5.41-3.6-7-1.77.82-3,2.5-5.76,1.68,0,.61-.44.84-.72,1.2.66,5.1,4.06,7.46,5,12.24,4.13,5.94,6.66,13.13,11,19,.82,1.08,1.65,1.34,2.16,2.4,2.42,5,4.88,9.54,7.68,14.16.76,1.25.6,3.16,2.64,3.6,1.33-.32,1.08-3.34,2.88-2.4-3.79,3.28-1.56,6.4.72,10.56,1.41,2.57,2.16,5.07,3.36,6.72.62.76,1.14-.6,2.16-.24.15.89.57,1.51.72,2.4-.72.88-1.4,1.8-3.12,1.68-1.4-3.48-2.74-7-5-9.6-.74,3.24,2.4,5.82.24,8.16-1-.14-1.56-1.1-2.64-.48-.22,2.53,3.65,1,3.6,3.36,1,.08,1.33-.43,2.4-.24,4.2,3.55-2.55,8.41-.24,12.24a11.64,11.64,0,0,0-6,5.28c-3.46,1.35-8.63,3.5-13,2.4.36-1.62,2.1-.89,3.36-1a15.89,15.89,0,0,0,7.92-2.88,41.09,41.09,0,0,0-10.32,2.16c-3.68-1.16-8.29-2.54-12.48-2.4-.35-.69-1.62-.46-1.44-1.68,4.51.83,8-1,12.24-2.88a15.63,15.63,0,0,0,2.64-1,32.69,32.69,0,0,0,5.28-5c.79-4.37-5.24-1-7.2-2.4-2.09,1.75-6.34-.12-8.16,1.92-4.83-2.07-13.22.91-19.44-.24-.41,1.29,1.56,4.55-.24,5.76-1.79-.15-2.14-.91-4.08-.48-.68-1.71-1.23-2.85-.24-4.56-5.26-2-11.34,2.48-16.08.24-1,2.17-3.73,1.15-6.24,1-.8,2.43-4.28.94-7,1.2a13.84,13.84,0,0,0-1-3.12c2.25-2.39,1.15-8.13,3.12-10.8,5-1.11,10.42-.2,15.6-.24a24.67,24.67,0,0,1,3.6-.24c1,.14,1.91.84,2.88,1a21.73,21.73,0,0,0,6.72-.48c3.67,2.57,9.63,1.21,14.16,2.16a64.69,64.69,0,0,0,7.92,1.44c1.24.09,3-1,3.84.48-.34.94-2.22.34-2.16,1.68.86,3.13,5.41,2,7,.24-2.11-3-5.52-5.61-7.92-8.16-.78-.83-2.23-1.65-2.16-2.88,5.24,2.84,8.53,7.63,12.72,11.52a9.64,9.64,0,0,0,4.08-1c1.15.84,1.88,1,3.12.24.78.74,1.28,1.76,2.64,1.92.42-1.92-2.78-2.57-1.68-5.28-.89-1.11-3.62-.38-3.84-2.16,1.12-.26,1.56,1,2.4.24.21-1.4-1.15-1.25-1.68-1.92-2.78-5-3.36-12.16-6.72-16.56-.33-.31-.24-1-.24-1.68-2.68-2.32-3.86-6.45-5.52-9.84-1.29-2.62-3-4.76-4.32-7.2-1.79-3.27-3.1-6.94-5-10.08-1.17-1.89-2.94-3.35-4.08-5.28-1.24-2.09-1.87-4.28-3.6-6-1,.23-.6,2-1,2.88-2,2-4.65,3.35-6.48,5.52,0,1.08.89,1.74,0,2.4-.9-.23-1.1-1.14-2.16-1.2-.87,1.67-3.5,2.82-4.8,4.08-.82.79-1.43,2.84-3.12,1.92,3.26-4.58,7.73-7.95,12-11.52,1.57.44,2.34-.47,2.88-1.68-.88-.32-1.73-1.67-2.64-1.2-.48,1.52-2.35,2.93-3.84,2.64.77-1.39,2-2.28,2.64-3.84,1,0,1.79-.13,1.68-1.2-4.54,1.77-7.13,5.5-10.32,8.64-.33.47-.23,1.37-.48,1.92a6,6,0,0,0-3.84,6.24c-.41.72-1.59.65-2.4,1,.27,2.77-2.35,4.45-4.56,5.52A148.93,148.93,0,0,0,475,329.52a4.46,4.46,0,0,1,0,2.88,80.68,80.68,0,0,0-3.12,11.76c-.3,1.56-.15,3-.48,4.32-.23.89-.85,1.52-1,2.4a25.57,25.57,0,0,0,.24,3.36c.07,3.85-1.7,8.66,0,13-.55.65-.31,2.09-1.2,2.4a8.13,8.13,0,0,1-4.32-1.2,4.75,4.75,0,0,1-3.84,0c-2.76,1.79-6.63,2.28-11.52,2.4-2.93.07-6.35.49-8.4.24-1.55-.19-3.39-1-5-1.2-.94-.14-2.59.72-2.64-1,1.79-.66,5.43-.45,7.68.24,1.44-1.29,4.62-1.54,6.48-1.68.2-1.4-1.62-.78-1.2-2.4,1.62-1.85,1.08-5,1-8.16-1.24.72.06,3.71-.48,4.56-.76,0-1.05.54-1.92.48.06-3.89,1.71-7.37,1.68-10.56-2.43,1.4-6.52.93-9.84,1-5.89.05-14.51-.74-16.08,1.68.27,1.32.77,2.43,2.16,2.64,1,0,1.64-1.55,2.64-.72-.17,1.67-2.17,1.51-1.68,3.84.59,1.46,2.91-.28,3.36,1.2-2.82,1.83-.09,4.95,2.4,5,.07.87-1.05.55-1.44,1-.37,1,1.1,1.43.24,2.16-2,.14-4,.57-5.52-.72-.8.07-.24,1.52-1,1.68-2.16,1.58-4.83-.43-7,0-1.18.24-1.07,1.35-2.4,1.44-.6-.52-1.75-.49-2.16-1.2.4-1.29,1.72-1.64,1.92-3.12-1-.4-2.53-.19-3.84-.24-1.46,1.1-1.89,3.22-3.36,4.32,2.22,4-4.25,2.78-1.44-1.2.45-.43,1.68-.08,1.44-1.2-.4-1.36-1.73.7-2.4-.24.64-1.36.42-3.58,2.64-3.36.87.51-1.12,1.72.24,1.92,1.46-.66.84-2.74.24-3.84,1.74-5,2.71-10.73,7.92-12.24-.29-1.71-.08-3.92-.48-5.52,2.77-2.51,2.6-8,4.56-11.28-.16-.72-.92-.84-.72-1.92,2.72-3.64,3.28-8.34,5.52-12.24.48-.84,1.48-1.3,1.92-2.16,1.91-3.67,2-8.38,4.08-12.24-.09-.95-2.14.06-1.68-1.44a3.36,3.36,0,0,0,2.4-.48c1.71-4.65,3.63-9.27,5.28-13.92,2.37-6.68,6.57-12.53,8.64-18.72-1.66-1.38-5.05-1-6.72-2.4-1.42,3-3.4,6-4.32,9.12-.24.83,0,1.77-.24,2.64-.69,2.1-2.81,4-3.84,6.24a64.88,64.88,0,0,0-4.08,10.56c-.59.45-1.33.75-1.92,1.2-1.62,9.26-6.77,15-8.4,24.24,2,.2,1-2.5,2.64-2.64-.07,1.1.52,4.58-1,5-1,0-2-.72-2.64-.24a117.87,117.87,0,0,0-5.52,14.4,9.42,9.42,0,0,0-2.4,3.84,48,48,0,0,1-1.92,6.72c-.65,1.72-1.25,3.54-1.92,5-2.65,5.9-4.88,12.11-8.64,16.32-1.21-1.43-1.52-3.76-2.4-5.52,1.12-.87,2.94-1.06,4.56-1.44,1.33-3-.3-6.79-2.4-7.92-2.19,1.74-1.54,6.3-3.84,7.92-.48-.4-1.12-.64-1.2-1.44.66-2.28,2.43-5.54,1.44-7.92-3.71.56-7.58,1.58-10.8,1.92.57,4.63,5.57,4.83,7.68,7.92-1.75.27-3.51-1.43-5.52-1.68-.59-.53-.52-1.72-1-2.4-2-.37-3.35-1.5-4.8,0-4-1.6-6.37-5.89-11.76-5.28-9.17-3.31-16-8.93-24.48-13-2.48-3-6.95-4.16-11-6.24-3.2-1.62-6.64-3.07-9.36-4.56-.84-.46-1.92-1.15-1.92-2.4,5.4,1.88,9.82,5.74,15.12,7.92a69.57,69.57,0,0,1,7.92,3.6c2.55,1.44,5.46,2.55,7.68,4.08.56.38.8,1.11,1.44,1.44,1.39.72,3.14.7,4.56,1.44,1.89,1,3.25,3.4,5.76,2.88,3.35-4.65,7.66-9.62,13.44-11-4.46,3.78-9.65,6.83-12.72,12,4.56,1.85,2.84-6.55,8.16-5.52,5.74-6.91,15.87-9.41,28.32-9.6,2.14-2,7.37-2.71,10.8-1.92,2.55-3.53,3.58-7.87,5-12s3.78-7.74,5.28-11.76c.68-1.82.61-3.63,1.44-5.28,1.43-2.84,2.87-6.08,4.32-9.36,1.15-2.6,2.19-5.36,3.36-7.92,3.59-7.86,8.14-14.19,9.6-23.76-1.49-.06-2.62-.36-3.84-.48-7.31-.71-15.93.19-24.24-.48-3.82-.31-7.48-.72-11-.72-3.84,0-7.5.72-11,.72-2.67,0-5.13-.51-7,1.2-.33-.31-.15-1.13-.48-1.44-3.77,1.73-9.23,1.1-13.68.24a4.14,4.14,0,0,1-3.12.72c-2.06-2.36-4.7.11-7,.24-4.25.25-10-1.55-15.6-1.44-10.45.2-22.76.27-32.16-.24-3.5,2.1-9.67-1.63-12.72.72-.92-.28-2.15-.25-2.64-1-.83.13-1.28.64-2.16.72-2.88-1.24-5.74-.17-8.88,0-3.62.19-7.45-.69-11-.48-.87,0-1.81.62-2.64.72-6.77.79-15.1-.5-22.56-.48-3.42,0-6.91.95-9.84.72-1.15-.09-2.23-.89-3.36-1-1.69-.11-4.35.68-6.48.24-.52.36-.56,1.2-1.44,1.2-4.74.18-9.65,1-13.68.24.74,2.46-1,3.76-2.4,4.8,3.35,4.82,9.6,6.72,14.4,10.08h1.68c0,.77,1.53,1.17,1,1.68-1.34-.26-2.17-1-4.08-.72-1-1.84-3.15-1.74-4.8-2.64-.93-.51-1.5-1.62-2.4-2.16s-2.4-.59-3.6-1.2c-1.54-.79-2.9-2.16-4.56-2.88-1-.44-2.36-.29-3.36-1-.82,1.26-2.36,1.8-3.12,3.12-.06.82,1.31.82.48,1.68-1.07-.13-1.16-1.24-2.64-1-.71.47-1.65,3.07-.48,3.84,1.56.36.44-2,1.44-2.16,1.32,0,1.82.74,3.12.72.9-.62.86-2.18,1.2-3.36,1.2.24,1.11,1.77,1.2,3.12a12.83,12.83,0,0,0,4.32,3.36c1,0,1.55-.46,2.4,0,.7,1.05-.72,2,.24,2.64,1.52-.08,1.16-2,2.4-2.4,1.62.82-.35,2.56-.48,3.84.9.18,1.15-.29,1.92-.24s.3,1.14,1.2,1c8.44,1,10.29,8.59,19,9.36a12,12,0,0,0,3.36,2.16c.21.59-.06,1.66.72,1.68,3.43.16,4.78,4.07,8.64,4.56,3.14-1.48,7.21,1.31,9.36,3.12-3-.23-4.2-2.19-7.2-2.4,2.28,1.64,4.06,3.78,7.92,3.84,4.54,1.62,7.65,4.67,11.28,7.2.93.21.39-1,1.44-.72,2,1.66,7.17,1.29,7.44,3.84-.83-.06-2.52-1.51-3.12-.24a7.23,7.23,0,0,0,3.6,1.44,5.34,5.34,0,0,1,2.4-1.92c.36.28,1.07.21,1,1-1.49-.21-2.31.25-2.4,1.44,3.18,1.94,7.89,2.35,9.36,6,.76.12.85-.43,1.68-.24a1.35,1.35,0,0,0,.24,1c4.07,1.21,8,2.53,10.8,5v1.44c1,.28,3.2,1.69,3.6,1a1.55,1.55,0,0,1-1-2.4c2.46,2.1,5.54,3.58,8.4,5.28a2,2,0,0,0,.24,1.44c4.85,2.67,9.94,5.1,14.64,7.92.84-.59,2.45-1.33,3.36-.48.14.95-.94,1.39-.24,2.16,2.2.52,4.41,1,5,3.12,11.15,2.53,18.5,10.13,28.32,13.2.65-2.56-1.72-2.12-2.64-3.12,2.14.2,5.25,1.45,5.28,4.56,1.34.76,1.36-.85,2.64-.24.4.32.08,1.36.48,1.68,1.43-.14,3.12-.6,3.6.72-.29.59-1.47.29-1.2,1.44.85,0,.87.89,1.92.72.75,0,0-1.57,1-1.44,4,.73,6.79,5.66,11,3.84,1,.75,2.63.89,3.12,2.16a52.16,52.16,0,0,1-16.08-2.88c-.19.77-.71,1.21-.72,2.16,1.09.91,4.07-.07,4.56,1.44-.45.61-2.18.88-1.44,1.92,2.24,1.57,3.06-1.7,4.08-2.88,1.14,1.42,3.51,1.62,5.28,2.4-1.12,1.43-.61,2.48-.48,3.84-1.76.1-2.74.38-3.36-1-.22-1.15,1-1.71.24-2.64-2.06-.88-2.57,1.49-2.88,3.12-3.21-.23-3.78-3.1-5.52-4.8-1.05.31-2.4.32-3.12,1,1.48,1,3,2,3.6,3.84-.93,2.83-4.77,2.75-6.24,5,2.3,1.47,3.33,6.92,5.28,8.16,2.23,1.42,6.11.12,8.64-.72a37.6,37.6,0,0,0,2.64-10.56,2.12,2.12,0,0,1,1.92-.48c-.68-1.93,1.42-3.18,2.88-4.32,2.7.9,5.16,2,5,5.76,2.52.52,2.91,3.17,5.28,3.84-.57-3.07-.49-7.67,3.12-7.92-.23-1.11.31-1.45.48-2.16-1.9-1.06-5.82-.1-6.48-2.4,2.58-.63,5.27.63,8.16.48,2.15,1.69,4.43,3.25,5,6.48.31.41,1.43,0,1.44.72s-.13,1.57.24,1.92c5.1-2.16,12.23-2.54,16.8-4.56,3.54-.07,5.51.77,8.4-.24.45-.59,0-2.1,1-2.16.71.25,1.92,0,2.16.72.21,1-1.11,1.22-.48,1.92,3.47-.83,7.8,1.65,10.8-.24a18,18,0,0,0,8.16.72c3.71-.43,10.68-1.68,13.92-2.16,3,.5,5-1,7.92-1.2,2.69-.23,5.68-.77,8.4-.72,3.79.07,7.58-.89,10.8-.48-1.38,1.28-4.06,1.61-6.48,1.92-5.11.65-11.75.18-14.64,1.44.52,2.54-2.54,2.24-3.12,4.32,1.26.69,2-1,3.6-.72-.47-2.21,1.85-3,2.88-1.68-1.94,1.7-3.15,3.86-6.24,3.84-.71,2.2,1.17,4.53,1.44,7,.47,4.25,1.06,7.08,2.88,9.36.45,4.86,3.93,9.24,6.24,13.92a42.39,42.39,0,0,0,5.52,8.88c3.92,4.77,6.81,7.08,10.8,10.8.4.32.08,1.36.48,1.68.86,1.79,3,2.37,4.32,3.6,1.1,1,1.7,2.68,2.88,3.6,4.85,3.79,10.14,5.42,16.08,8.16a6.87,6.87,0,0,0,.72,2.16c5.29,1.27,10,4.45,15.36,6.72,3,1.24,6.33,1.31,9.6,1.92,1.74.32,3.45,1.26,5.28,1.44,2.52.25,4.1.84,5.76,1s3.78-.56,5.76-.48c2.86.12,5.73.49,8.64.48,3.66,0,6.41-1.2,8.64-1.68,3-.64,4.92-1,7.44-1.44a52.48,52.48,0,0,0,10.56-2.64c1.59-.62,3.25-1.29,4.8-1.92,1.75-.72,3.79-1,5-1.68.78-.42,1.32-1.41,2.16-1.92,5.43-3.27,13.59-5.54,16.56-10.56.76.11.94-.34,1.44-.48,2.34-2.9,5.11-5.36,7.68-8.16,4.19-4.57,8.25-8.43,12.48-13,2.58-2.76,4.1-5.85,6.24-9.36,1-1.6,2.15-2.58,2.88-4.32,2.17-5.14,3.7-10.79,6.24-15.84,2.88-5.72,4.74-11.36,4.32-17.76.2-.75,1.32-.6,1.44-1.44,1.43-5.48,1.27-11.67,1.44-18.72-.11-.77-.91-.85-1-1.68.4-.4,1-.63,1-1.44-.16-1-1.27-1-1.44-1.92-.81-3.47,2.14-5.85-.48-8.16A5,5,0,0,0,672,337c-.24-.8-1-1.12-1.2-1.92-.8-6.09-3-10.3-4.8-15.6-.28-.82-.22-1.78-.48-2.4-.59-1.39-2.15-2.59-2.16-3.84s1.49-2.32,1.2-3.6c-2.14-.1-2.35,2-3.6,3.12-3.25,2.8-8.13,3.51-11,6.72,0,1.42,1.74,1.14,2.4,1.92.13,1.09-1.28.64-1.2,1.68a18.42,18.42,0,0,1,.48,7.2c-.39,1.88-2.3,2.63-3.36,4.08-.48.65-.62,1.83-1.2,2.4-2.93,2.86-7.08.27-10.32,1.44-1.34-.34-1.09-2.27-1.68-3.36-1.88-.68-4-1.15-5.28-2.4-4.12,2.56-8.22,5.59-12,8.16-1.26.86-3.2,1.3-3.84,2.88,6.83-.78,13.6-3.68,21.84-3.84.31.49,1.16.44,1,1.44-1.33,1.91-3.39.22-5.76.24-6.42,0-13.28,4.31-18.72,3.12-3.7,2-7,4.35-10.56,6.48-1.68,9-8.68,12.6-15.36,16.56.34,3.58,1.8,6,2.4,9.36a14.12,14.12,0,0,1,1.68.72c3.71,6.53,7.8,14,10.08,21.12-3-2.33-3.59-6.64-5.28-10.08a53.25,53.25,0,0,0-5.76-9.84c-.48,2.42,1.46,4.6,1.92,6.72s0,4.54,1,6.24c.65,1.21,1.88,1.06,2.16,2.64,0,.72-1.78-.34-1.44.72.12,6,3.15,10.87,3.6,16.32a52.66,52.66,0,0,1-4.32-13.92c-.3-1.63-.7-5.08-1.68-6.24-.71-.83-2.05-.81-2.88-1.44-3.9-2.95-5.66-8.61-10.32-10.56-1.83,1.67-2.1,4.35-3.12,7-.29.75-1.11,1.34-1.44,2.16a47.7,47.7,0,0,0-2.4,12c-2.95,4.9-3.56,12-4.8,18.48-.42,2.18-1.59,7-2.88,8.16-.52-4.64,1.74-8.77,2.16-13.2.09-.89-.17-1.77,0-2.64.74-3.82,3.2-6.13,2.88-11-.09-1.4-.8-2.31-1-3.84-.24-2.34.33-4.93-.72-7.68.2-.67.78-1,.72-1.92-1.47-3-2.18-6.77-3.12-10.32a61.43,61.43,0,0,0-11.28,1.92c-.07.86-.84,1.86-.24,2.64,3.07-.77,5.84-3.11,9.12-2.88a105.52,105.52,0,0,1-12,8.88c-1.52,3.44-2.48,7.44-5.28,9.6-1-3,3-4.11,2.16-7-2.38.2-2.73,3.09-3.84,4.8s-2.32,3.91-4.08,4.32c1.84-3.85,5.4-7.22,6-11.52-2.21-.68-3.59,2.59-5.76,1.92,4-3.15,10.36-5.15,11-10.8-6.51-1-10.43,4.58-17.52,4.56-.93,1.2-2.5,1.74-4.56,1.2-2.07.72-4.76,2.41-7.44,2.88-2,.35-2.54,1-3.84,1.2-.78.13-1.65-.21-2.4,0-1,.27-1.72,1.17-2.64,1.44-2.4.71-4.81,0-7.2.48-1,.21-1.64,1.45-2.64,1.68-1.52.36-3.09-.46-4.56-.24-2.25.34-2.82,2.78-5,2.16C492.43,391.23,494.7,390.46,497.28,390ZM536.4,268.56c.91.61,1.23,1.81,1.44,3.12.89.59,1.24-1.06,2.64-.72,1.72.47,1.88,3.81.48,4.8-1.23-.53-1-2.53-2.64-2.64-.65.55-.11,2.29-1,2.64-.9-.38-1.07-1.49-2.16-1.68-.08,2.08,1,3,1.68,4.32,4-1.65,5,4.53,7.2,4.8,1.49.18,1.5-1.64,3.36-1.68.85,0,.48,1.13,1.44,1,.68-.37,1-1.22,1.92-.72,0,.24.2.28.24.48.24,1.12-1,.8-.72,1.92,1.09,0,2-.22,2.4-1-2.06-3-4.32-7-6-9.6,3.49.19,2.93,4.43,5,6,1.63-5.48-.56-11.13-1.44-16.32C545.41,264.77,539.56,265.32,536.4,268.56ZM191.76,265.2c-1.42,4.1-4,8.29-4.8,12.24,2-.77,2.49-3.4,3.36-5.28s1.84-4.08,2.64-6c.48-.48,1.22-.7,1.44-1.44C193.5,264.05,192.44,264.89,191.76,265.2ZM193.44,281c-.55.33-1.5.26-1.44,1.2.4,1.25,1.48.4,2.4.24.47.17.64.64.72,1.2-.13,1.31-1.93.95-1.68,2.64,1.49.37,1.37-.87,2.4-1,.51.9,1.32.09,2.4.24.7.42.7,1.54,1.92,1.44a1.88,1.88,0,0,0,.48-2.4h-1.2c-.43-2.46-3.9-2.74-2.64-5.52-1.17-.21-1.23.69-2.4.48v-1.2C192.55,278.3,192.48,280.16,193.44,281Zm351.36,6c.65.15,1.91-.3,2.16.24-.7,1.22-2.7,1.14-4.08,1.68-1.08-.6-1-2.34-2.64-2.4-.85,3.56,3,6.32,4.08,8.64.23.48.2,1.09.48,1.68,1.69,3.53,4.26,6.85,6,10.32,1,1.93,1.45,4,3.12,5.28,1.54-9.2-3.35-15.55-6-22.56.16-.48.73-.55,1-1,.13-1.17-1-1.12-1.2-1.92,1-.3,1.23-2.11.48-2.88A3.23,3.23,0,0,0,544.8,287Zm-368.16,10.8c.17,4.44-4,6.89-2.4,11.76-4.16,4.32-6.06,10.9-9.12,16.32a8.58,8.58,0,0,1-2.88,6.48c.34,2.34-1.15,2.85-2.64,3.36-.28,1,.51.93.48,1.68-.45-.47-.88-.07-1.44,0,.16,2.7-2.78,4.19-3.84,6.48-1.18,2.55-.79,6-1.92,8.64s-2.47,3.94-2.88,6.24c3.53-1.2,3.82-5.63,6-8.16,0-.62-1-.25-.72-1.2h1.44c3.15-4.53,4.39-11,7.92-15.12,4-12.25,10.63-21.85,15.12-33.6-1.43.17-1.88,2.6-2.88,2.4-.2-1.64.66-2.22.72-3.6.35-.69,1.8-.28,1.68-1.44C178.88,297,177.65,298.06,176.64,297.84ZM192,302.4c-1.87-.72-5-3.35-6.72-.72.11,1,1.21,1,1.92,1.44-.4,1-1.73,1-1.44,2.64.89.7,2.46-.33,3.12.24-.55,5,2.81,9.24,6.48,11.52.88-.4,1.17-1.39,2.64-1.2.09,3.43,3.16,3.88,4.32,6.24-.72,1.44-2.07,2.25-2.64,3.84,1,1.11,1,2.37,1.44,3.84,2.11,6.75,7.08,15.64,6.72,23.76.3.81.85,1.39,1.2,2.16.43,5.84,3,12.54,1.44,19,3.79,3-.87,8.07,1.68,12.24.55.45,1.82-.55,2.16.48-.18,2.54-4,1.44-3.36,4.8a5.48,5.48,0,0,0,2.64,1c.73,0,.23-1.21,1-1.2s.48,1.44,1.68,1.2c1.46-4.63,1.67-10.09,2.64-15.12a29.39,29.39,0,0,1,1.68-6.48c.5.46-.08,2,1,1.92,1.73-.91,1.65-3.63,3.12-4.8a54,54,0,0,0-1.44-9.36c-1.14-.1-1.26.82-2.4.72.27-.69,0-1.87.48-2.4H223c1.14-2.62,0-5.17-.48-7.2-2.07-8.78-3.33-18.88-8.16-25a4.48,4.48,0,0,0-1.92-.24c-1.54-3.77-5.69-7.12-5-11.52-2.66-4.7-7.06-7.66-9.84-12.24C195.87,301.56,193.68,302.06,192,302.4Zm-53,.24c-.22,1.1.6,1.16.48,2.16-1.38,4-2.26,8.46-6,10.08.32-2.73,2.71-4.76,1.68-9.12-1.52-1.13-7.25-1.29-8.16.48,2.77.83,3.54,3.66,3.12,7.68,2.23,1.93,2.6,5.72,5.52,7,.12-.76-.43-.85-.24-1.68,1.57-.18,1.82-1.7,1.68-3.6,1.07-1.09,2.2-2.12,3.36-3.12,1.51-.23,1.92.64,3.36.48,1-1.72,2.25-4.24,1.92-6.48-2.21,0-2.69,1.63-4.8,1.68-.36-1.47,1.08-4.08.24-6A3.85,3.85,0,0,0,139,302.64Zm535.2,3.12c.23-1.94-3.75-4.43-5.52-2.16-.86-.08-1.16-.37-1.92,0-.5.63.1,2.34-1,2.4-.75-.41-1.27-.52-1.92,0,0,2.19,1.33,3,3.12,3.36C668.49,307.35,673.84,308.41,674.16,305.76Zm-37,10.08c-.4.64-1,1.06-1.44,1.68-1,.24-.72-.72-1.68-.48-.46,2.18-2.14,3.14-2.4,5.52,2.5-.62,3.13-3.11,4.8-4.56,2.6-1.25,5.07-3.61,8.88-2.88,1.35-.94,2.93-1.68,4.32-2.64s3.13-1.72,3.6-3.36c-1.83-.46-3.21,1.3-4.56,2.16a32.83,32.83,0,0,1-4.56,2.64c-1.05-1.15-2.4.32-3.6.48-2.12-1.56-2.05-5.31-4.32-6.72C635.11,310.07,636.8,313.43,637.2,315.84Zm-480.72-2.16c-.63-.57-.84-1.56-1.68-1.92a6.21,6.21,0,0,0-3.36,1c-1.46,4.54-3.92,9.35-4.8,13.68,2.51-.35,3.87-2.94,6.72-2.16a55,55,0,0,0,5.28-13.2C156.76,310.76,157.83,313.43,156.48,313.68Zm-42.72,31c-7.63-6.77-10.78-18-16.08-27.12-3.2,1.25-1.37,3.5-.48,6.48,1.54,5.18,3.53,9.83,4.08,15.36.2,2,5.69,6,7,7.2,2.65,2.45,4.88,5.57,7.44,5.76C115.66,349.14,113.38,348.22,113.76,344.64Zm513.36-25c-2.94,1.86-6.12,3.48-8.64,5.76,1.84.5,3.74-1.09,5.28-1.92s3.88-1.73,4.32-3.6C627.76,319.84,627.62,319.58,627.12,319.68ZM95,321.12a1.12,1.12,0,0,1-.72-.24c-2.18,2.05-4.82,3.65-6.24,6.48,4.29,3.23,7.36,7.68,11.76,10.8C99.23,332.43,96.38,326.91,95,321.12Zm44.4,2.64c-.5.38-1.59.17-2.16.48.32,1.12,1.67,1.21,2.64,1.68,1-.86,1.41-3.24,1-4.8-1.7.4-2.35-.17-4.08-.24C136.58,322.94,138.9,322.46,139.44,323.76ZM81.12,321.6c-9.17,6.51-14.37,17-19.68,27.36a17,17,0,0,0,.72,1.92c-.86,1.78-2.92,2.36-3.84,4.08,0,.93,1.17.75,1.2,1.68a15.53,15.53,0,0,0-3.36,7.44c-.17.65,1.13-.17,1,.48-3.56,4.37-2.32,12.79-3.36,19.68-.38,2.51-.1,5.64-.72,8.16,1.22,1.58.07,3.38.24,5,.19,1.83,1.5,3.53,1.68,5.28.16,1.57-.33,3.21,0,4.8.81,3.87,3.69,7.66,5.28,11.76,2.16,5.58,3.62,9.8,6.48,14.16,4.11,6.26,10.53,11.65,15.6,15.84a13.52,13.52,0,0,0,3.6-9.12c1.44-1.84,3.2-3.36,3.6-6.24-1.94-.1-2.24,2.71-4.08,1.92.82-2,2.94-2.66,4.8-3.6,5.85-9.75,12-19.2,15.6-31.2.52-.68,1-1.42,1.44-2.16-.42-2.43.69-3.31,1.2-4.8-2.37-.41-3.48,3.68-6,3.12.49-2.07,3.33-1.79,3.84-3.84-2.31-1-4.15,1.74-6.24,1,3.48-1,6-5.21,10.32-3.84a39.37,39.37,0,0,0,2.64-5.76c-.71-.33-1.9-.18-1.92-1.2.35-1.29.81-3.33.24-4.8-3.69-1.22-6.31.22-9.6.24-.63-1.53-2-2.31-1.92-4.56H97.92c-1,.8,1,1.8-.24,2.16a4.72,4.72,0,0,0-3.84-1.44c.51-2.77,5-1.55,7.2-2.64.43-1.21-.85-2.2-.48-4.08,1.89-.69.9-2.78,1.68-4.8.34-.87,2.49-2.17,2.4-3.36-.08-1-3.2-2.85-4.08-3.6-3.4-2.91-7.27-6.25-9.6-9.36,2.18.54,3.33,2.11,4.32,3.84,4.12,1.88,6,6,10.32,7.68,1.22-.78,1.42-2.58,2.88-3.12,2.93.59,2.4,2.21,1.92,4.32-.79,3.5-1.39,9-2.88,11.28-.91.82-3.33-.42-3.84,1.2.8,1.41,2.08.73,3.12,0,1.18,1.09,2.81.34,4.8.72a26.44,26.44,0,0,1,2.88-4.56c-.21-3.07,1.72-5.7,2.4-8.64.49-.15,1.67.39,1.44-.48-.32-1.92-1.77-2.71-1.92-4.8-5-2.41-7.69-7.19-12.48-9.84.31,3.54,2.71,6.24,2.4,9.6-1.51-3.65-2.81-6-4.08-9.36-.31-.81-.22-2.12-.72-3.12-1.12-2.25-4.41-3.65-6.24-5.52-2.6-2.65-4.88-5.64-6.48-7-1.18-1-2.56-.83-2.64-2.16-.1-1.73,2.73-2,2.4-3.36-2.16-1.66-3.94,1.06-5.76,0-2.25,3.35-6.37,4.82-7,9.84-2.35,1.33-3.67,3.69-3.84,7.2-2.27,1.36-3.45,3.75-5,6.72a21.69,21.69,0,0,0-2.88,8.16c-1.79,4.33-5.13,9.54-3.84,15.36-1.06.74-1,2.06-.48,3.36.95,1,1.4-1.53,2.16-.72a2.28,2.28,0,0,1-.72,1.92c-.34.44-1.17-.37-1.68.24-2.88,8.36-.25,21.05.48,28.8-2.06-2.45-1.61-6.2-2.4-9.6-.86-3.68-1.44-6.13-.48-9.6-.12-.92-1-1-1.2-1.92,0-.91,1-.91,1-1.92,0-5.49,1.37-11.57,1.68-17.52,1.89-1.28,1.33-3.73,2.16-6,.64-1.76,1.75-3.45,2.4-5.28a77.65,77.65,0,0,1,7.68-15.6c1.92-6.88,7.74-9.86,10.8-15.6C81.55,321.65,81.4,321.56,81.12,321.6Zm545.52,2.64c-.53,1-1.93.81-2.88,1.2-4.64,1.9-9,4.75-13,7-1.29.72-3.47,1.15-3.84,2.88,4-1.48,8.82-1.92,12.48-3.6a31.6,31.6,0,0,0,4.32-3.12c1.36-1,3.61-2.11,3.36-4.08C627.07,324.29,626.92,324.2,626.64,324.24Zm-455.28,1c-1.25,3.07-4,4.68-4.32,8.64,2.65-1,5.25-4.18,6.72-7.2C173.13,326,172.67,325.17,171.36,325.2Zm7.68,7c1.59,1.37,2.35,3.57,3.36,5.52-.51,1-2.59.45-2.4,2.16.49.55,2.15-.07,2.64.48.74,3.53,3.59,6.21,3.6,10.32,0,3.11,1.1,5,1.68,7.92.43,2.15.82,4.63,1.2,7,.44,2.7-1,6.82,1.92,8.16.3-3.43.82-9.65-.72-13.2a3.72,3.72,0,0,0,.48-1.92c-.19-1-1.29-1.11-1.44-2.16.25-6-2.2-11.22-4.32-15.6-.36-4.84-2.9-7.51-5-10.56A2.84,2.84,0,0,0,179,332.16Zm-13.44,4.32c-1.81,5.71-5,10-7.2,15.36a2.13,2.13,0,0,0-2.16,2.16c1.4.83,2.15-.82,2.64-1.68,2.52-.32,4.72-2.93,7.68-3.6,1.35-1.19,1.54-2.41,1.92-4.32.82-4.11,4.17-7.49,5.28-11.28,1.17-.43,2.34-.85,2.4-2.4C172,331,170.1,335.7,165.6,336.48Zm432.72,2.4c-.62,3.62-6.19,4.58-5,8.4,2.28-.43,2.88-2.56,5.28-2.88,4.66-4.22,11.56-6.2,16.32-10.32C609.13,335.46,604.62,338.06,598.32,338.88Zm-3.6.48c-1.62,2.94-5.77,3.35-7.44,6.24,5.17.29,6.39-3.36,8.64-6A1.57,1.57,0,0,0,594.72,339.36ZM175.44,354.72c3.09-1.57,8.13-2.15,8.64-5,.33-1.9-.94-5.5-2.64-6.72-3.47,4.21-5.12,10.24-9.6,13.44C173.14,357.1,174.06,355.42,175.44,354.72Zm-23.76-7.2c-5.5,4.26-15,4.55-22.32,7-3.25-2-7.61-3-10.8-5-2.77,4.12.36,5.92,1.68,9.6.39,1.1.34,2.46.72,3.36,1.44,3.41,4.7,6.1,5,9.36.13,1-1.88-.12-1.68,1,4.65-.21,7.07,4.11,11.28,3.36,1.3-.23,2.84-2.32,3.84-3.84,3.39-5.17,6.86-11.66,10.08-15.6.59-3.33,2.51-5.33,2.88-8.88C152.09,347.75,152.07,347.45,151.68,347.52Zm5,8.64c-.57.47.44,1.34-.24,1.92a3.56,3.56,0,0,1-1.92,0c-3.43,2.5-8.35,4.77-8.16,10.08,5.71-5.41,12.77-9.47,18-15.36a.66.66,0,0,0-.48-.72A69.73,69.73,0,0,1,156.72,356.16Zm27.12-3.6a92.19,92.19,0,0,1-8.88,4.32c-2.54,1-2.68,1.59-4.32,3.12-1,1-2.64,1.55-3.6,2.4-1.14,1-1.88,2.44-3.12,3.36-2.86,2.13-6.36,3.52-7.44,7,1.6.77,3.87-1.06,5,.48.13.93-.43,1.17-.24,2.16-1.6,1.12-3.74,1.7-5.52,2.64.12,2.36,4.82.14,5.52,1.92-3,1.57-6-.81-9.6-.24-.84.13-.48,1.44-1.68,1.2-.32-3-5.22-3.5-7.2-2.16,1.09,1.07,3.9.42,4.32,2.16-2.21.17-2.83-1.57-5-.72a5.41,5.41,0,0,1-2.4-2.16c-1,.35-1.43,1.29-3.12,1,.64,2.74,3.59,1.92,6,2.64.88.26,1.59,1.23,2.64,1.44a32.28,32.28,0,0,0,3.84,0c6.85.32,12.81,3.35,16.8,2.4,5.85,2.46,13,2.25,19.68,3.12,3,.39,6.14,1.8,8.64,1.92,2.24.11,4.19-1.14,6.48-.72a22,22,0,0,1,2.64-2.4c-3.82-1.95-11.87,1.28-15.12-2.4,1.16-2.71-.11-6.2-1.2-8.16,2.07-1.63.67-7.71.48-10.8-8-.12-13.36,5.68-20.16,6.72,5.46-4.46,13.78-6.06,19.68-10.08-.87-3.29-1-7.35-2.4-10.08ZM371,355.2c1.89,1.22,4.16,2.77,6.24.72-.24-1.65-2.18-1.13-3.36-.72C373,353.59,371.22,351.44,371,355.2Zm42.48-1.44c-2.17-.31-2,.94-2.64,2.4-.41,1-1.51,1.81-1.68,2.4-.23.82.17,1.89,0,2.64-.29,1.27-1.91,1.65-1.2,2.64,1,1.11,3.31.21,5.52.48C415.38,362,417.33,354.3,413.52,353.76ZM104.4,369.36c3.57-.12,4.46-7.63,2.4-9.6C106.6,363.43,103.95,365.83,104.4,369.36Zm54.72-5.76a24.84,24.84,0,0,0-8.4,4.56c2.76-1.64,7.56-1.24,8.88-4.32,1.72.72,3.68-1.55,3.36-2.88A5.11,5.11,0,0,0,159.12,363.6Zm259.2-2.4a18.14,18.14,0,0,0-1.68,5.28c1.44.8,3.49,1,5.28,1.44C420.93,365.47,420.56,362.4,418.32,361.2ZM119,362.4c-1,2.82-2.29,5.39-2.64,8.88a2,2,0,0,0,2.4,0c-.73-3.15,1-5.17,1.44-7.92C119.93,362.95,119.74,362.42,119,362.4Zm218.16,5c.22-1.45-.54-3.87-2.16-4.56A8.51,8.51,0,0,1,331,364.8c-1.26,2.65-.32,6.69,2.88,7C334.08,370.09,336.89,369.47,337.2,367.44Zm231.6,2.88c-5.79.38-11-2.26-15.12.48-.87-.11-1.16-.62-1.92-.24-1.47,1.65-2.85,3.39-6,3.36-.25.87-.76,1.48-1,2.4,2.5-.21,5.25-.07,7-.48,4.08-1,9.11-.73,11-2.4a2.8,2.8,0,0,0,3.6-1.44c.84.75,3.2.6,4.08,0-.87-2,1.47-4-1.68-4.32C568.62,368.73,569.45,369.55,568.8,370.32Zm12-1.2a45.69,45.69,0,0,1-1.68,6.48,32.63,32.63,0,0,0,8.64,4.8c0-4.23-1.93-8.61-3.36-12.24A6.27,6.27,0,0,0,580.8,369.12Zm-243.6,6a6.47,6.47,0,0,0,4.8-4.8C339.42,369,336.44,372.33,337.2,375.12ZM353,373.68c2.12.47,3.73,1,5.28-.24,1,0,.88,1.2,1.92,1.2a2,2,0,0,1,2.64-.24c-.1,1.38,0,2.53,1.44,2.4.32-1.36,1.56-1.8,2.16-2.88-.69-1.19-2.16.2-3.36,0-.57-.63-.74-1.66-1.92-1.68s-1.26.82-2.4.72C357.79,371.81,351.65,369.51,353,373.68Zm-199.68.24c-.44-1.31-1.94-.86-3.36-.72.39,1,2,.76,2.4,1.68-.18.94-1.59.65-1.44,1.92,1.18,2.76,3.29.54,5.52-.48,1.54-.71,3.51-1.06,3.6-2.16C158.32,373.38,156.13,374.39,153.36,373.92Zm417.36,1.2c-2.21-1.34-3.17.63-5.28.72a24.29,24.29,0,0,0,2.4,9.12c.66,1.6.93,3.42,2.16,4.56,2.28-3.65,2.31-10.79,2.88-15.36C571.76,373.5,571.84,375.1,570.72,375.12Zm-347,5.52c1.93-.38,2.14-3.52,1.92-5.28a3.22,3.22,0,0,0-2.4-.72C223.56,376.77,222.48,379.89,223.68,380.64Zm351.12-5.76c-.27,2-2.26,5.5-.72,7C575,380.11,578.61,375.61,574.8,374.88Zm-444.24,2.64c-1.62-.54-2.61-1.71-4.8-1.68-2,5.76-10,5.55-11.76,11.52-.07,1,.73,1.19.48,2.4-.55.25-1.45.15-1.92.48-.3,2.07,1.91,1.61,2.88,2.4,0,.82-.71.89-1.2,1.2-.85-.19-.62-1.46-1.68-1.44-3.25,1.36-3.49,4.31-3.84,8.4,1.26-.1.8-1.92,1.68-2.4a8.39,8.39,0,0,0,6.24,1,10.52,10.52,0,0,1-3.36,4.56c-.49-.39,0-1.77-.48-2.16-1.3-.46-2.63,1.19-4.08,0-2.53,5.08-5.4,12.84-8.16,17.76-.86,1.54-2.53,3.06-.48,4.8,1.15.19.42-1.5,1.2-1.68,2.44-.2,4.9-.38,5.28-2.64-.34-.06-.27-.53-.48-.72-2-.25-1.81,1.71-2.88,2.4.45-4.68,2.61-9.71,6.72-11.52.72,0,.82.62,1.44.72,1.27-2.65,5.75-4.85,3.84-8.4.59-.54,1.71-.53,2.88-.48,1.45-3.27,4.63-6.09,4.8-9.84-1.12,3.21-4.68.87-4.08-2.4a5.53,5.53,0,0,1,2.88-2.16c.73.15,1.38.38,1.44,1.2-1.27.41-2.77-.23-3.12,1.44.78,1.54,3.93.61,5-.24.83-.63,1-2,1.68-3.12,1.77-2.84,4.2-6.43,4.08-8.88C130.61,377.95,130.52,377.8,130.56,377.52Zm267.36,5.28c.42.77,1.73.67,1.92,1.68-.4.8-2.43,1-1.44,2.4,1.69.17,1.35-1.69,2.4-2.16-.37-.43-.86-.74-.72-1.68a1.13,1.13,0,0,0,.72-.24c.73.28.89,1.12.48,1.92a4.12,4.12,0,0,1,1,.72,2.25,2.25,0,0,0,1.44-3.6c-1-.63-3.57.37-3.84-1,.73-1.16,2-.86,3.6-.72,0-1.62-.14-3.06-1.44-3.36A7.4,7.4,0,0,0,397.92,382.8Zm180.24-4.56c.28.68,1.19.73,1.92,1,2.8,3,5.69,5.83,8.64,8.64.23.81.26,1.82,1.44,1.68.31-2.61-1.28-5.24-1.92-7.68-4.1-.78-6.66-3.1-10.08-4.56C578.18,377.94,577.76,377.76,578.16,378.24Zm-150,3.6c2.4,1.76,6.84,1.48,9.84,2.64a3.85,3.85,0,0,0,0-3.84C435,380.48,430.68,380.77,428.16,381.84Zm-252.72,8.4c-.68-.13-1.26-.64-1.92-.72s-1.3.29-1.92.24c-.87-.07-1.49-.76-2.4-1-3.34-.75-8.31-.6-12.48-1.2-5.13-.74-8.65-4.33-12.48-2.4-1.92-1.84-3.57-.57-6,0,.74,1.83-.09,2.37-.24,4.32,1.78.16,3.44,1.38,5,1,.68-1.85-2.55-3.77-1.44-5.28,2.34,1,2.51,4.21,4.08,6,1.81.75,4.38.74,5,2.64-1.39.45-2.84-1-4.32-1.2-.41.23-.48.8-1,1-.93-.58-1.29-1.75-3.12-1.44-.19,2.9,3,2.49,4.8,3.36,1.6.76,2.43,2.77,3.6,3.6,1.87,1.32,5,.38,6.24,2.64a10.5,10.5,0,0,1-6.24-1c-.53,4,2.13,6.35,3.36,9.12,1,2.3,1.49,4.88,2.4,7.2,2.09,5.3,5.56,10.1,7.2,15.84.41.71,1.48-.34,1.68.24-.41,1.43-2.09,1.7-2.88,2.88-.34.51-.23,1.38-.72,1.92-1.86,2.05-5.65,3.17-7.92,5a9.5,9.5,0,0,0-1.92,2.88c-3.23,1.81-6.36,3.72-10.32,4.8-.46.57-.38,1.69-1.2,1.92-4.7.82-9,.74-13.2,2.16-.22-.42-.88-.4-1-1,.47-.17-.06-1.34.48-1.44,1.2-.21,2.21.67,3.12,0,.65-.31.15-1.77,1-1.92.88.32.3,2.1,1.92,1.68.87-.77-.72-2.51.48-2.88,1.13.31.87,2,2.16,2.16,2.23-1.21,5.15-1.73,7.44-2.88.42-1.69-1.61-3-.24-4.08.82.54.49,2.23,1.2,2.88,3,.29,7.36-1.8,7.68-4.56.16-1.33-1.89-2.91.24-3.6a3.63,3.63,0,0,0,3.6,1.68c1.57-.23,7.39-5.15,7.44-6.48s-2.57-4-3.36-5.76c-1.67-3.67-2.16-7.19-3.36-9.84-.82-1.82-1.66-3.34-2.16-4.8-.33-1-.13-2-.48-2.88-.42-1-1.6-1.82-2.16-2.88-1.57-3-2.11-6.38-2.88-9.36-1.16-2.34-3.7-2.46-5.76-3.6-.81-.45-1.19-1.42-1.92-1.92-2.27-1.56-5.23-2.23-7.44-3.84a9.34,9.34,0,0,0-3.6,2.64c-.12,3.81,2.24,6.12,3.12,9.6.45.75,1.25-.58,1.44,0,.21.93-1,.39-.72,1.44.54,6.18,4,9.42,4.32,15.84,2.42,4.62,6.43,7.64,8.64,12.48-.49.31-.25,1.35-1,1.44-.31-3.18-2.92-3.83-4.32-5.76-1.28-1.77-1.53-3.85-3.36-4.8a55.55,55.55,0,0,0-4.08-12.72c-1.12-.46-1.53,1-2.16.24-1-1.34,1.11-1.36,1.2-2.4-1.67-4.65-2.76-9.88-6-13-1.4.67-2.16,2-3.6,2.64-3.45,7.6-10.1,14.25-13.44,23.28-1.87,5.07-3.36,9.88-5.52,14.16S98.23,443,98.88,448.8a3.68,3.68,0,0,0,2.88,1c.72-.8-.51-3.55,1-3.6,1.1.83.25,3.3,0,4.32,1.79.69,3.32,1.64,5.52,1.92.92-.81-.2-2.21,1-2.64.72.72.22,2.66,1.44,2.88,3,0,7.94,1.9,12,1-.12-1.32-2.21-.67-1.92-2.4.81-.82,2.06.94,3.36.48-.53,1.43-.35,1.5.48,2.4-3.79,2.25-10.13,1.17-15.84,0s-10.43-3.39-13.44-6.24a12.84,12.84,0,0,0-3.36,6c1.32.3,2,1.72,3.36,2.4,2.58,1.27,6.37.81,8.64,2.64a6.35,6.35,0,0,0,1.92-.72c.71.33.82,1.26,1.92,1.2,6.13-1.22,12.84,1,19,.24,5.73-.75,11.28-2.36,15.12-4.56,3.09-1.78,6.58-4.44,10.8-5A176.11,176.11,0,0,1,167,436.8c.73-.17.71.41,1.44.24,1.36-1.28,1.64-3.64,3.6-4.32,3.7-8.22,9.6-14.24,12.48-23.28.73-.93,2.17-2.94,1-4.32-2.73,1.91-2.51,6.77-5.52,8.4a7,7,0,0,0-.24,2.64c-.88,1.84-2.45,3-3.12,5-3.78,3.5-6,8.57-10.56,11.28.28-3.42,5.2-3.86,4.8-7.2-.11-1-2.71-3.51-3.6-4.32-2.15-2-5.18-3.31-6.24-5.52,5.29,1.35,7.09,6.19,11.28,8.64,2.08-2.48,4.63-4.49,5-8.64,4.92-5.16,6.59-13.57,8.64-21.6,1.54.09,3.25-1.64,1.92-2.88-1.38-.19-.69,1.71-1.68,1.92C183.71,389.89,179.22,391,175.44,390.24Zm234-6.24H409c-.51,2.12,1.49,3.56,1.44,6,3.79.05,8.94.62,10.8-2.4C418,385.64,412.52,386,409.44,384Zm-23.28.48a45.47,45.47,0,0,0-2.4,7.2c.15.33.92,0,1,.48A19,19,0,0,0,390,386.4C388.81,385.67,388,384.54,386.16,384.48Zm-167,.72a10.44,10.44,0,0,1,.24,5.76c-.73.17-.87-.25-1.44-.24-.37,1-.4,2.93.24,3.6-2-.56-1.78,4-1.44,5.76.7-.06.74.54,1.44.48.73-5.18,3.51-8.8,3.12-14.4C220.7,385.75,219.67,384.88,219.12,385.2Zm-89.76,2.16c-1,2-4,1.87-4.32,4.56a4.06,4.06,0,0,1,.72,1c1.35-.57,1.67-2.17,2.88-2.88,1.8.12,3.05-.31,2.88-2.16A3,3,0,0,0,129.36,387.36Zm317.28,8.88c-2.21-.74-4.92-1.87-7.2-2.88a28.4,28.4,0,0,0-3.6-1.68c-.4-.1-.79.28-1.2.24-2.65-.28-5.65-2.94-8.4-2.64-1.1.58-.42,2.94-1,4.08-.69,0-1.57-.13-1.92.24-1.36,1-.06,2.94-.48,4.08-.79,0-1.19-.4-2.16-.24-1.11.85-1.18,2.47-1.2,3.84-1,.39-1.35-.09-2.4.24-.69.67-.51,2.21-1.2,2.88-1.5.12-4.26-.28-4.08,2.16,3.1,1.11,6-.9,8.64-.24,2.41-3.27,10.32-1,13.92-3.12,1.12-.24.8,1,1.92.72.74-.65-.84-1.17,0-1.92,1-.18.83.77,1.92.48,1.6-2.06,5-3.83,7.92-1.92a43.84,43.84,0,0,1,6-.72c1.17,0,3.52,1,3.6-1-.34-.86-2-.88-2.88-.48a4.61,4.61,0,0,0-1.92-2.16A8.68,8.68,0,0,1,446.64,396.24Zm-41.28-1c-.34-1.78-7.71-7.16-10.56-5.28-4.16,2.74-9.8,4.39-7.68,11.28,3.07,2.69,12.53,3.08,16.32.72C403.75,399.69,405.83,397.74,405.36,395.28Zm5.28-.48c-1.36,1.28-1.15,4.13-1.44,6.48,3.65-.67,5.35-3.29,6.24-6.72C413.69,394.49,412.5,395,410.64,394.8Zm-202.8,2.64c1.81,1.39,1.7,4.7,1.92,7.68-.36.13-.61.36-1,.48-1.52.08-1.67-1.21-3.36-1-.5,2.18.58,5.27-.24,8.4,0,.8.78.82.72,1.68-.36.52-1.38.38-1.44,1.2.41.87.53,2,1.2,2.64,1.22-.79.9-3.11,2.16-3.84,1-.07.93.31,1.68,0a20.4,20.4,0,0,0,3.12-8.64c.26-1.71,1.54-2.43,2.16-4.08a13.47,13.47,0,0,0,.48-6.72c-1.62-.26-2,.68-3.12,1C210.75,394.07,208.76,395.89,207.84,397.44Zm170.88.48c-1.25,0-2.73-.78-2.64,1,1.92,1.14,4.27,3.07,7,2.64C382.59,399.18,380.86,395.73,378.72,397.92ZM473,410.16c2.15,4.59,4.79,7.63,7,11.52,1.1,2,2,4.47,4.08,5.28-.66-4.27-4.87-6.64-6.48-10.8-1.91-5-4.36-8.77-6.24-13.44h-.72C470.35,405,471.89,407.71,473,410.16ZM102,432.72c2.39-2.09,2.67-6.29,4.08-9.36C103.49,425,101.37,429.43,102,432.72ZM81.36,463c1.49-2.6,3.78-5.78,0-6-2.73,5.19-6.64,9.2-8.64,15.12,1.43-.14,1.41,1.15,2.4,1.44C78,471.06,79.28,466.58,81.36,463Zm.72,4.56c.09,1.18.57,1.59.24,2.64-4,1.63-5.21,6.15-7,10.08.88.22,1.5-1,2.16-.24-1.69,1.25-5.92,2.05-4.32,5,1.51,0,1.44-1.6,2.16-2.4,1.53-.31,2.86-.82,3.12-2.4-.74-.94-.28-2.18,0-3.36,2.16-.72,3.08-2.68,5-3.6a25.39,25.39,0,0,0-3.36,7.2c2.4-.33,2.1-3.35,3.84-4.32-.22-2.54,1.57-3.07,1.68-5.28-.17-.48-1.34.06-1.44-.48,1.41-1.12-.26-1.82-.24-3.12,0-2.09,2.53-2.75,2.4-5.28C84,462.9,83.87,466,82.08,467.52Zm-16.32,21.6c-1.14,1.34-2.82,2.14-2.88,4.56.93.18,1.24-.89,1.92-.24.05,1.18-.68,2.44.24,3.12,2.44-1,.18-6.7,2.64-7.68-2.72-4.8,3.12-6.2,2.64-11,1.11-1.29,2.48-3.59,2.16-5.52C70.12,477.12,65.79,483,65.76,489.12Z"/><path class="cls-1" d="M469.2,122.64c-.42-6.36,10.32-3.12,13.92-3.36-.25.79-1,1-1.68,1.44-3-1-10.63-1.69-10.8,1.44-.22,4,6.64,1.9,9.6,2.4-3.19,2.8-9.12.74-11-1.92"/><path class="cls-1" d="M150.72,122.88a1.81,1.81,0,0,1,1.44-1.44,1.31,1.31,0,0,1,.24,1.68,65.63,65.63,0,0,1,10.08,15.12c-4.13-4.9-6.71-11.37-11.76-15.36"/></g></g></svg>